<svg width="24" height="24" viewBox="0 0 24 24" fill="none" xmlns="http://www.w3.org/2000/svg">
<path d="M3.80422 11.3257C3.81539 10.9271 3.85087 10.5345 3.90922 10.1495C3.28953 9.94307 2.65885 9.57491 2.00952 8.99265C2.4145 9.92178 2.88621 10.5784 3.40705 11.0279C3.53619 11.1394 3.66864 11.2383 3.80422 11.3257Z" fill="black"/>
<path d="M4.99177 16.2354C4.62625 15.5738 4.33655 14.8645 4.13437 14.1192C3.16616 13.7807 2.27215 13.0421 1.45991 11.7094C2.26463 14.2998 3.39398 15.5825 4.69066 16.1237C4.72937 16.1399 4.76825 16.1554 4.8073 16.1703L4.81062 16.1715C4.87061 16.1943 4.931 16.2156 4.99177 16.2354Z" fill="black"/>
<path d="M13.4002 21.1996C18.702 21.1996 23 16.9016 23 11.5998C23 6.29798 18.702 2 13.4002 2C9.11412 2 5.48409 4.80887 4.25049 8.68624C4.85102 8.95451 5.5469 8.74441 6.37401 8.32038C6.70857 8.14886 7.05753 7.94631 7.42416 7.7335C7.5135 7.68164 7.60389 7.62917 7.69537 7.5764C8.16073 7.30795 8.65211 7.03295 9.1677 6.79698C10.199 6.32501 11.3352 6.0053 12.571 6.20607C13.808 6.40702 15.1281 7.1266 16.533 8.70034C16.5678 8.73934 16.5692 8.79781 16.5364 8.83845C16.5035 8.8791 16.446 8.88993 16.4006 8.86404C13.5502 7.23884 11.2483 8.26176 9.03259 9.24633L9.0295 9.2477C8.93378 9.29023 8.83781 9.33288 8.74238 9.37505C7.5953 9.88189 6.45973 10.3489 5.292 10.3629C4.83511 10.3684 4.37527 10.3047 3.90922 10.1495C3.85087 10.5345 3.81539 10.9271 3.80422 11.3257C4.29955 11.6449 4.83666 11.8093 5.40698 11.8624C6.85672 11.9975 8.51273 11.4153 10.2254 10.8131L10.2738 10.7961C11.9901 10.1927 13.7594 9.57709 15.3742 9.7185C16.1858 9.78958 16.9599 10.0516 17.6694 10.6003C18.378 11.1483 19.0165 11.9778 19.5654 13.1753C19.5853 13.2187 19.5739 13.27 19.5375 13.3009C19.5012 13.3319 19.4487 13.3349 19.409 13.3083C16.0606 11.0648 12.8542 12.2181 9.89903 13.281C9.82492 13.3077 9.75088 13.3343 9.67709 13.3608C9.51473 13.4191 9.35314 13.4768 9.19234 13.5335C7.62875 14.0839 6.13128 14.5297 4.74912 14.2804C4.54103 14.2428 4.33609 14.1897 4.13437 14.1192C4.33655 14.8645 4.62625 15.5738 4.99177 16.2354C6.3672 16.6843 7.94217 16.39 9.58317 15.9075C10.0923 15.7578 10.6016 15.592 11.1114 15.4261C11.4853 15.3043 11.8596 15.1825 12.2346 15.0667C13.1154 14.7949 13.9886 14.5605 14.8269 14.4572C15.6655 14.3538 16.4743 14.3808 17.2245 14.636C17.9762 14.8918 18.6622 15.3745 19.2573 16.1708C19.2868 16.2103 19.2854 16.2649 19.2539 16.3028C19.2224 16.3407 19.169 16.3521 19.1248 16.3304C17.9241 15.7399 16.6902 15.7539 15.4413 16.0372C14.4553 16.2608 13.4691 16.6496 12.4868 17.0368C12.2206 17.1418 11.9546 17.2466 11.689 17.3481C10.4505 17.821 9.22043 18.2188 8.04018 18.1724C7.23106 18.1406 6.4498 17.9003 5.70719 17.3431C7.45781 19.6842 10.252 21.1996 13.4002 21.1996Z" fill="black"/>
</svg>
