<?xml version="1.0" standalone="no"?>
<!DOCTYPE svg PUBLIC "-//W3C//DTD SVG 20010904//EN"
 "http://www.w3.org/TR/2001/REC-SVG-20010904/DTD/svg10.dtd">
<svg version="1.0" xmlns="http://www.w3.org/2000/svg"
 width="700.000000pt" height="700.000000pt" viewBox="0 0 700.000000 700.000000"
 preserveAspectRatio="xMidYMid meet">
<metadata>
Created by potrace 1.11, written by Peter Selinger 2001-2013
</metadata>
<g transform="translate(0.000000,700.000000) scale(0.100000,-0.100000)"
fill="#000000" stroke="none">
<path d="M3728 6705 c-2 -2 -46 -6 -98 -9 -654 -40 -1347 -339 -1844 -796 -88
-81 -200 -194 -256 -260 -30 -35 -60 -70 -67 -77 -38 -42 -163 -217 -232 -326
-74 -119 -182 -327 -229 -442 -51 -125 -80 -204 -87 -233 -6 -30 -5 -31 47
-47 106 -31 264 -16 418 42 104 39 315 149 600 312 248 143 462 255 590 310
199 85 429 151 595 169 82 9 316 9 395 -1 251 -30 498 -127 749 -295 63 -41
124 -83 135 -93 12 -9 53 -43 91 -75 100 -82 186 -166 347 -335 29 -31 32 -58
7 -67 -17 -7 -52 6 -158 59 -293 145 -562 211 -861 211 -80 0 -165 -3 -190 -6
-386 -49 -632 -130 -1295 -426 -439 -196 -702 -282 -980 -319 -73 -10 -341 -8
-385 3 -14 3 -38 9 -55 12 -114 20 -262 73 -385 137 -108 57 -308 193 -355
242 -5 6 -18 17 -28 24 -16 13 -16 12 0 -25 108 -236 267 -469 402 -589 19
-16 39 -35 45 -40 6 -6 34 -26 61 -45 28 -19 52 -38 55 -41 13 -14 123 -70
190 -97 107 -42 212 -68 318 -78 224 -21 484 8 802 90 177 46 336 97 795 256
503 174 825 272 974 296 36 6 47 8 126 23 233 46 529 46 750 2 115 -22 324
-108 444 -182 108 -65 272 -213 371 -334 53 -66 160 -211 160 -218 0 -2 23
-41 50 -87 28 -46 73 -130 101 -187 41 -84 49 -106 39 -118 -18 -21 -40 -19
-81 9 -211 144 -590 307 -789 340 -19 3 -46 8 -60 11 -14 3 -36 7 -50 10 -14
3 -34 7 -45 9 -144 29 -565 29 -765 0 -181 -26 -437 -83 -630 -140 -197 -59
-295 -92 -780 -264 -294 -104 -341 -120 -495 -168 -143 -45 -358 -102 -440
-117 -254 -46 -453 -52 -665 -20 -240 36 -513 178 -709 368 -125 122 -182 190
-290 346 -39 57 -71 101 -71 98 0 -14 87 -262 110 -312 4 -11 32 -74 62 -140
80 -182 194 -377 287 -495 226 -283 468 -447 776 -524 138 -35 156 -37 355
-41 178 -3 327 9 490 40 47 9 99 18 115 21 17 3 57 12 90 20 33 8 67 16 75 18
53 13 152 40 190 51 25 8 86 26 135 40 50 15 158 49 241 76 83 27 159 51 170
54 10 2 60 18 109 35 211 73 712 217 820 236 16 3 50 10 75 15 25 6 59 12 75
15 31 3 96 14 128 20 129 24 483 24 601 -1 177 -36 348 -101 471 -178 116 -72
280 -222 365 -332 65 -85 42 -117 -54 -75 -92 41 -110 48 -181 69 -158 46
-269 63 -440 66 -116 2 -172 -2 -310 -18 -139 -17 -400 -81 -595 -147 -164
-55 -395 -141 -485 -180 -11 -4 -33 -13 -50 -18 -16 -6 -115 -44 -220 -85
-405 -159 -721 -255 -930 -283 -27 -3 -59 -8 -70 -11 -11 -2 -87 -6 -170 -9
-317 -9 -573 66 -835 244 -24 16 -25 16 -10 -3 96 -128 309 -355 443 -472 274
-241 670 -466 1047 -595 82 -28 318 -90 390 -102 19 -3 46 -8 60 -11 14 -3 45
-8 70 -11 25 -3 47 -8 51 -9 30 -19 583 -27 729 -12 70 7 172 22 230 33 14 2
40 7 58 10 157 26 444 115 627 193 121 52 327 158 377 192 14 11 29 19 32 19
4 0 12 5 19 10 7 6 50 36 97 67 560 372 1012 973 1216 1618 34 106 82 283 90
335 3 14 9 50 15 80 5 30 12 73 15 95 3 22 7 50 9 62 20 92 27 499 12 668 -21
244 -68 468 -148 708 -308 927 -1034 1657 -1959 1970 -171 58 -357 104 -497
123 -26 3 -50 8 -53 9 -3 2 -37 6 -75 10 -39 4 -81 9 -95 11 -28 6 -427 14
-432 9z"/>
</g>
</svg>
