<svg width="24" height="24" viewBox="0 0 24 24" fill="none" xmlns="http://www.w3.org/2000/svg">
<path d="M4.01562 8.00781C3.45956 8.00781 3.00879 8.45859 3.00879 9.01464V9.01464C3.00879 9.5707 3.45956 10.0215 4.01562 10.0215H19.9844C20.5405 10.0215 20.9912 9.5707 20.9912 9.01464V9.01464C20.9912 8.45859 20.5405 8.00781 19.9844 8.00781H4.01562Z" fill="black"/>
<path d="M3.00879 14.962C3.00879 15.518 3.45956 15.9688 4.01562 15.9688H19.9844C20.5405 15.9688 20.9912 15.518 20.9912 14.962V14.962C20.9912 14.4059 20.5405 13.9551 19.9844 13.9551H4.01562C3.45956 13.9551 3.00879 14.4059 3.00879 14.962V14.962Z" fill="black"/>
</svg>
