<svg width="24" height="24" viewBox="0 0 24 24" fill="none" xmlns="http://www.w3.org/2000/svg">
<circle cx="12" cy="12" r="12" fill="black"/>
<path d="M20.884 11.874C20.873 12.273 20.837 12.666 20.779 13.051C21.399 13.257 22.029 13.625 22.679 14.207C22.274 13.278 21.802 12.622 21.281 12.172C21.151 12.061 21.019 11.962 20.884 11.874V11.874ZM19.696 6.965C20.0657 7.63344 20.3538 8.34386 20.554 9.081C21.522 9.419 22.416 10.158 23.228 11.491C22.423 8.901 21.294 7.618 19.998 7.076L19.881 7.03L19.877 7.028C19.817 7.006 19.757 6.984 19.697 6.965H19.696Z" fill="#319595"/>
<path d="M10.6 2.00001C8.05397 2.00001 5.61217 3.01144 3.81182 4.81179C2.01147 6.61214 1.00005 9.05393 1.00005 11.6C1.00005 14.1461 2.01147 16.5879 3.81182 18.3882C5.61217 20.1886 8.05397 21.2 10.6 21.2C14.886 21.2 18.516 18.391 19.75 14.514C19.149 14.245 18.453 14.456 17.626 14.88C17.291 15.051 16.942 15.254 16.576 15.467L16.305 15.624C15.839 15.892 15.348 16.167 14.832 16.403C13.801 16.875 12.665 17.195 11.429 16.993C10.192 16.793 8.87204 16.073 7.46704 14.5C7.45067 14.4811 7.44146 14.457 7.44103 14.4319C7.44059 14.4069 7.44895 14.3825 7.46465 14.363C7.48036 14.3435 7.50241 14.3301 7.52697 14.3251C7.55152 14.3202 7.57703 14.3241 7.59905 14.336C10.449 15.961 12.752 14.938 14.967 13.954L14.97 13.952L15.258 13.825C16.405 13.318 17.54 12.851 18.708 12.837C19.1777 12.8297 19.6453 12.9017 20.091 13.05C20.15 12.6605 20.1851 12.2678 20.196 11.874C19.7135 11.5671 19.1631 11.383 18.593 11.338C17.143 11.202 15.487 11.785 13.775 12.387L13.726 12.404C12.01 13.007 10.241 13.623 8.62605 13.481C7.79116 13.419 6.993 13.1126 6.33104 12.6C5.62204 12.052 4.98304 11.222 4.43504 10.025C4.4249 10.0039 4.42202 9.98006 4.42686 9.95715C4.4317 9.93425 4.44399 9.91359 4.4618 9.89841C4.47961 9.88322 4.50195 9.87436 4.52533 9.8732C4.54871 9.87204 4.57182 9.87866 4.59104 9.89201C7.93904 12.135 11.146 10.982 14.101 9.91901C14.3366 9.83463 14.5722 9.75063 14.808 9.66701C16.371 9.11701 17.868 8.67001 19.251 8.92001C19.4599 8.95708 19.6656 9.01058 19.866 9.08001C19.6657 8.34322 19.3777 7.63314 19.008 6.96501C17.633 6.51501 16.058 6.81001 14.417 7.29201C13.907 7.44201 13.398 7.60801 12.889 7.77401C12.515 7.89601 12.14 8.01801 11.765 8.13401C10.885 8.40501 10.011 8.64001 9.17305 8.74301C8.33505 8.84601 7.52604 8.81901 6.77604 8.56401C6.02404 8.30801 5.33804 7.82501 4.74304 7.02901C4.72898 7.00982 4.72171 6.98648 4.7224 6.9627C4.72308 6.93891 4.73167 6.91603 4.74681 6.89767C4.76196 6.87932 4.78279 6.86653 4.80601 6.86134C4.82924 6.85615 4.85353 6.85885 4.87504 6.86901C6.07504 7.46001 7.31004 7.44601 8.55904 7.16301C9.54504 6.93901 10.531 6.55001 11.513 6.16301C11.779 6.05801 12.045 5.95301 12.311 5.85201C13.55 5.37901 14.78 4.98201 15.96 5.02801C16.8053 5.05357 17.6212 5.3435 18.293 5.85701C17.4001 4.65903 16.2394 3.68639 14.9037 3.01671C13.568 2.34704 12.0942 1.99887 10.6 2.00001Z" fill="#319595"/>
</svg>
