<svg xmlns="http://www.w3.org/2000/svg" enable-background="new 0 0 24 24" viewBox="0 0 24 24" fill="currentcolor" width="24" height="24">
    <style>
        path.bg { fill: #319595; border-radius: 5px; }
        @media (prefers-color-scheme: dark) {
        <!-- path { fill: #ffffff; } -->
        }
    </style>
    <path class="bg" fill="none" d="M0 0h24v24H0z"></path>
    <path d="M3.804 11.326c.011-.399.047-.792.105-1.177-.62-.206-1.25-.574-1.9-1.156.405.929.877 1.585 1.398 2.035.13.111.262.21.397.298zM4.992 16.235a9.54 9.54 0 01-.858-2.116c-.968-.338-1.862-1.077-2.674-2.41.805 2.59 1.934 3.873 3.23 4.415l.117.046.004.002c.06.022.12.044.18.063z"></path>
    <path d="M13.4 21.2a9.6 9.6 0 000-19.2C9.114 2 5.484 4.809 4.25 8.686c.601.269 1.297.058 2.124-.366.335-.171.684-.374 1.05-.587l.271-.157c.466-.268.957-.543 1.473-.779 1.031-.472 2.167-.792 3.403-.59 1.237.2 2.557.92 3.962 2.493a.107.107 0 01-.132.164c-2.85-1.625-5.153-.602-7.368.382l-.003.002-.288.127c-1.147.507-2.282.974-3.45.988a4.173 4.173 0 01-1.383-.213 9.652 9.652 0 00-.105 1.176 3.5 3.5 0 001.603.536c1.45.136 3.106-.447 4.818-1.049l.049-.017c1.716-.603 3.485-1.219 5.1-1.077a4.265 4.265 0 012.295.881c.709.548 1.348 1.378 1.896 2.575a.106.106 0 01-.156.133c-3.348-2.243-6.555-1.09-9.51-.027a231.97 231.97 0 01-.707.252c-1.563.55-3.06.997-4.443.747a4.032 4.032 0 01-.615-.16 9.54 9.54 0 00.858 2.115c1.375.45 2.95.155 4.591-.327.51-.15 1.019-.316 1.528-.482.374-.122.749-.244 1.124-.36.88-.271 1.754-.506 2.592-.609.838-.103 1.647-.076 2.397.179.752.256 1.438.739 2.033 1.535a.107.107 0 01-.132.16c-1.2-.591-2.435-.577-3.684-.294-.986.224-1.972.613-2.954 1-.266.105-.532.21-.798.311-1.239.473-2.469.87-3.649.824a4.043 4.043 0 01-2.333-.829A9.586 9.586 0 0013.4 21.2z"></path>
</svg>