<svg class="self-center mr-4" xmlns="http://www.w3.org/2000/svg" enable-background="new 0 0 24 24" viewBox="0 0 24 24" fill="currentcolor" width="24" height="24">
    <style>
        path { fill: #319595; }
        @media (prefers-color-scheme: dark) {
        <!-- path { fill: #ffffff; } -->
        }
    </style>
    <path d="M3.359 9.754c.011-.399.046-.791.105-1.176-.62-.207-1.25-.575-1.9-1.157.405.93.877 1.586 1.398 2.035.129.112.261.21.397.298zM4.546 14.664a9.54 9.54 0 01-.857-2.117c-.968-.338-1.862-1.077-2.674-2.41.804 2.591 1.934 3.874 3.23 4.415l.117.047h.003c.06.024.12.045.181.065z"></path>
    <path d="M12.955 19.628a9.6 9.6 0 000-19.2c-4.286 0-7.916 2.81-9.15 6.687.6.268 1.297.058 2.124-.366.334-.172.683-.374 1.05-.587l.271-.157c.465-.269.957-.544 1.472-.78 1.032-.472 2.168-.791 3.404-.59 1.237.2 2.557.92 3.962 2.494a.107.107 0 01-.133.163c-2.85-1.625-5.152-.602-7.368.383l-.003.001-.287.127c-1.147.507-2.283.974-3.45.988a4.173 4.173 0 01-1.383-.213 9.654 9.654 0 00-.105 1.176 3.5 3.5 0 001.603.537c1.45.135 3.105-.447 4.818-1.05l.048-.017c1.717-.603 3.486-1.219 5.1-1.077a4.265 4.265 0 012.296.882c.709.548 1.347 1.377 1.896 2.575a.107.107 0 01-.156.133c-3.349-2.244-6.555-1.09-9.51-.028l-.222.08a82.15 82.15 0 01-.485.173c-1.564.55-3.061.996-4.443.747a4.032 4.032 0 01-.615-.162 9.54 9.54 0 00.857 2.117c1.376.449 2.95.154 4.592-.328.509-.15 1.018-.316 1.528-.482.374-.121.748-.243 1.123-.359.881-.272 1.754-.506 2.593-.61.838-.103 1.647-.076 2.397.18.752.255 1.438.738 2.033 1.534a.107.107 0 01-.133.16c-1.2-.59-2.434-.577-3.683-.293-.986.223-1.972.612-2.955 1-.266.104-.532.209-.797.31-1.239.473-2.469.871-3.65.825a4.043 4.043 0 01-2.332-.83 9.586 9.586 0 007.693 3.857"></path>
</svg>