<?xml version="1.0" standalone="no"?>
<!DOCTYPE svg PUBLIC "-//W3C//DTD SVG 20010904//EN"
 "http://www.w3.org/TR/2001/REC-SVG-20010904/DTD/svg10.dtd">
<svg version="1.0" xmlns="http://www.w3.org/2000/svg"
 width="700.000000pt" height="700.000000pt" viewBox="0 0 700.000000 700.000000"
 preserveAspectRatio="xMidYMid meet">
<metadata>
Created by potrace 1.11, written by Peter Selinger 2001-2013
</metadata>
<g transform="translate(0.000000,700.000000) scale(0.100000,-0.100000)"
fill="#000000" stroke="none">
<path d="M3215 6989 c-748 -64 -1435 -351 -1995 -835 -551 -475 -938 -1101
-1114 -1799 -34 -137 -72 -346 -88 -490 -17 -155 -17 -575 0 -730 63 -570 255
-1100 567 -1570 270 -405 644 -771 1047 -1024 457 -287 944 -456 1503 -523
139 -16 595 -16 730 0 847 103 1555 446 2131 1034 204 208 346 389 490 623
269 439 429 910 496 1460 16 130 16 600 0 730 -73 596 -246 1079 -557 1555
-139 213 -239 336 -449 548 -657 668 -1554 1038 -2496 1031 -91 -1 -210 -6
-265 -10z m170 -594 c717 -80 1344 -409 1821 -955 46 -52 81 -96 80 -98 -2 -1
-30 13 -63 33 -335 199 -740 215 -1278 49 -119 -36 -246 -83 -590 -216 -397
-154 -551 -208 -733 -258 -447 -121 -782 -117 -1110 14 -103 41 -128 44 -137
16 -9 -28 48 -101 165 -214 255 -245 551 -348 960 -333 315 12 568 71 1275
299 732 235 999 293 1335 292 171 -1 318 -20 402 -53 32 -12 62 -61 128 -210
48 -106 140 -360 140 -385 0 -8 -29 -4 -92 13 -86 23 -109 25 -318 25 -203 0
-238 -3 -360 -27 -233 -46 -435 -109 -1034 -321 -589 -210 -919 -291 -1279
-316 -447 -31 -882 78 -1267 316 -99 61 -140 69 -140 29 0 -30 91 -215 162
-329 235 -375 520 -593 888 -677 113 -26 368 -36 520 -20 253 26 539 99 970
248 908 314 1140 373 1464 373 208 0 361 -34 516 -116 l70 -36 0 -70 c0 -58
-18 -258 -24 -265 -1 -1 -24 5 -51 13 -132 40 -340 54 -505 34 -244 -30 -436
-95 -975 -330 -496 -217 -693 -283 -970 -325 -146 -23 -446 -16 -580 13 -139
30 -297 87 -442 157 -77 38 -138 63 -147 59 -9 -4 -16 -18 -16 -33 0 -21 29
-56 142 -167 226 -222 397 -349 603 -449 225 -109 391 -148 635 -149 183 -1
289 14 465 66 215 64 407 154 795 376 302 173 505 273 615 303 94 26 209 30
278 10 58 -17 58 -10 -10 -181 -223 -566 -612 -1031 -1137 -1360 -335 -211
-723 -346 -1156 -402 -159 -20 -519 -15 -690 11 -618 93 -1157 360 -1584 786
-672 669 -959 1614 -771 2541 108 533 374 1026 764 1415 465 463 1051 741
1706 808 133 14 422 12 560 -4z m2578 -1531 c324 -194 571 -544 756 -1066 17
-49 29 -88 27 -88 -2 0 -19 24 -37 53 -105 164 -289 356 -434 452 -79 53 -238
135 -261 135 -6 0 -28 53 -48 118 -41 128 -120 321 -169 417 -18 33 -33 63
-35 67 -6 13 137 -50 201 -88z m231 -1413 c80 -68 176 -178 242 -277 51 -77
153 -261 154 -277 0 -4 -44 26 -97 67 -117 89 -251 167 -351 204 l-74 27 6 50
c4 28 9 95 12 150 3 55 7 106 10 113 5 17 24 6 98 -57z"/>
</g>
</svg>
