<svg width="545" height="407" viewBox="0 0 545 407" fill="none" xmlns="http://www.w3.org/2000/svg">
<path d="M416.118 373.957H406.646V374.23H416.118V373.957Z" fill="#E6E6E6"/>
<path d="M326.259 370.197H305.156V370.469H326.259V370.197Z" fill="#E6E6E6"/>
<path d="M135.291 370.055H88.2137V370.327H135.291V370.055Z" fill="#E6E6E6"/>
<path d="M78.5126 370.055H71.6129V370.327H78.5126V370.055Z" fill="#E6E6E6"/>
<path d="M308.448 363.602H206.337V363.875H308.448V363.602Z" fill="#E6E6E6"/>
<path d="M284.446 20.3612H63.9938V177.463H284.446V20.3612Z" fill="#FAFAFA" fill-opacity="0.5"/>
<path d="M288.523 20.3612H65.9014V177.463H288.523V20.3612Z" fill="#F5F5F5" fill-opacity="0.8"/>
<path d="M282.811 171.043V26.7704L71.6129 26.7704V171.043H282.811Z" fill="#FAFAFA" fill-opacity="0.5"/>
<path d="M110.068 171.043L143.575 26.7704H187.502L153.995 171.043H110.068Z" fill="white"/>
<path d="M161.102 171.043L194.62 26.7704H214.458L180.94 171.043H161.102Z" fill="white"/>
<path d="M282.811 171.043V26.7704H282.081V171.043H282.811Z" fill="#FAFAFA"/>
<path d="M59.7102 20.0996V82.3604H76.1801C76.1801 82.3604 105.73 63.0565 112.499 23.3478C112.663 22.3968 112.617 21.4214 112.363 20.4902C112.11 19.559 111.655 18.6947 111.032 17.958C110.408 17.2213 109.631 16.6302 108.755 16.2262C107.878 15.8222 106.924 15.6152 105.959 15.6197H64.1901C63.002 15.6197 61.8625 16.0917 61.0223 16.9318C60.1822 17.772 59.7102 18.9115 59.7102 20.0996Z" fill="#C9C9C9"/>
<path d="M59.7102 196.68V87.3853H76.1801C76.1801 87.3853 109.61 151.75 113.48 196.68H59.7102Z" fill="#C9C9C9"/>
<path d="M75.7004 82.3604H60.3096C59.4006 82.3604 58.6637 83.0973 58.6637 84.0063V85.7394C58.6637 86.6484 59.4006 87.3853 60.3096 87.3853H75.7004C76.6094 87.3853 77.3463 86.6484 77.3463 85.7394V84.0063C77.3463 83.0973 76.6094 82.3604 75.7004 82.3604Z" fill="#EDEDED"/>
<path d="M293.21 20.0996V82.3604H276.707C276.707 82.3604 247.114 63.0565 240.389 23.3478C240.226 22.3971 240.274 21.4224 240.528 20.492C240.783 19.5617 241.237 18.6981 241.86 17.9619C242.483 17.2257 243.26 16.6346 244.135 16.23C245.011 15.8254 245.964 15.6171 246.929 15.6197H288.741C289.926 15.6255 291.061 16.0996 291.898 16.9389C292.736 17.7781 293.207 18.9142 293.21 20.0996V20.0996Z" fill="#C9C9C9"/>
<path d="M293.21 196.68V87.3853H276.707C276.707 87.3853 243.288 151.75 239.408 196.68H293.21Z" fill="#C9C9C9"/>
<path d="M288.229 216.539H252.008V356.866H288.229V216.539Z" fill="#FAFAFA"/>
<path d="M278.56 356.866H288.229V340.658H268.423L278.56 356.866Z" fill="#F4F8FF"/>
<path d="M277.187 87.3744H292.578C293.487 87.3744 294.224 86.6375 294.224 85.7285V83.9954C294.224 83.0864 293.487 82.3495 292.578 82.3495H277.187C276.278 82.3495 275.541 83.0864 275.541 83.9954V85.7285C275.541 86.6375 276.278 87.3744 277.187 87.3744Z" fill="#EDEDED"/>
<path d="M288.229 216.539H106.504V351.285H288.229V216.539Z" fill="#FAFAFA"/>
<path d="M161.102 192.712C161.102 205.792 173.702 216.539 189.115 216.539H203.023C218.425 216.539 231.026 205.814 231.026 192.712H161.102Z" fill="#EBEBEB"/>
<path d="M153.036 162.77H179.196C179.196 162.77 174.651 174.76 174.651 181.823C174.651 188.886 194.554 216.539 166.116 216.539C137.678 216.539 157.581 188.875 157.581 181.823C157.581 174.771 153.036 162.77 153.036 162.77Z" fill="#E0E0E0"/>
<path d="M280.729 224.747H114.003V258.722H280.729V224.747Z" fill="#EBEBEB"/>
<path d="M116.172 356.866H106.504V340.658H126.32L116.172 356.866Z" fill="#FAFAFA"/>
<path d="M192.243 241.729C192.243 242.743 192.544 243.733 193.107 244.576C193.67 245.418 194.47 246.075 195.406 246.462C196.342 246.85 197.372 246.952 198.366 246.754C199.36 246.556 200.272 246.068 200.989 245.352C201.705 244.635 202.193 243.723 202.391 242.729C202.589 241.735 202.487 240.705 202.099 239.769C201.712 238.833 201.055 238.033 200.212 237.47C199.37 236.907 198.38 236.606 197.366 236.606C196.008 236.606 194.705 237.146 193.744 238.107C192.783 239.068 192.243 240.371 192.243 241.729V241.729Z" fill="#FAFAFA"/>
<path d="M280.729 266.93H114.003V300.905H280.729V266.93Z" fill="#EBEBEB"/>
<path d="M192.243 283.912C192.243 284.926 192.544 285.916 193.107 286.759C193.67 287.601 194.47 288.258 195.406 288.645C196.342 289.033 197.372 289.135 198.366 288.937C199.36 288.739 200.272 288.251 200.989 287.535C201.705 286.818 202.193 285.906 202.391 284.912C202.589 283.918 202.487 282.888 202.099 281.952C201.712 281.016 201.055 280.216 200.212 279.653C199.37 279.09 198.38 278.789 197.366 278.789C196.008 278.789 194.705 279.329 193.744 280.29C192.783 281.251 192.243 282.554 192.243 283.912V283.912Z" fill="#FAFAFA"/>
<path d="M280.729 309.102H114.003V343.077H280.729V309.102Z" fill="#EBEBEB"/>
<path d="M197.366 331.218C200.196 331.218 202.489 328.925 202.489 326.095C202.489 323.266 200.196 320.972 197.366 320.972C194.537 320.972 192.243 323.266 192.243 326.095C192.243 328.925 194.537 331.218 197.366 331.218Z" fill="#FAFAFA"/>
<path d="M403.169 18.4646H322.259V76.0602H403.169V18.4646Z" fill="#E0E0E0" fill-opacity="0.5"/>
<path d="M409.775 18.4646H326.858V76.0602H409.775V18.4646Z" fill="#F5F5F5" fill-opacity="0.5"/>
<path d="M404.488 70.7737V23.7511L332.145 23.7511V70.7737H404.488Z" fill="white" fill-opacity="0.5"/>
<path d="M391.757 57.0724V37.4415H344.876V57.0724H391.757Z" fill="#F5F5F5"/>
<path d="M468.809 47.2624H419.563V98.9066H468.809V47.2624Z" fill="#E0E0E0" fill-opacity="0.5"/>
<path d="M475.436 47.2624H424.173V98.9066H475.436V47.2624Z" fill="#F5F5F5" fill-opacity="0.5"/>
<path d="M470.15 93.6201V52.549H429.46V93.6201H470.15Z" fill="white" fill-opacity="0.5"/>
<path d="M442.191 73.0845C442.191 71.2709 442.911 69.5315 444.192 68.2481C445.474 66.9646 447.212 66.2422 449.025 66.2393H450.573C452.387 66.2422 454.125 66.9646 455.407 68.2481C456.688 69.5315 457.408 71.2709 457.408 73.0845V73.0845C457.408 74.8971 456.688 76.6354 455.406 77.9171C454.124 79.1987 452.386 79.9188 450.573 79.9188H449.08C448.178 79.926 447.283 79.7545 446.448 79.4143C445.612 79.0741 444.853 78.5718 444.212 77.9364C443.572 77.3011 443.063 76.5453 442.717 75.7125C442.37 74.8798 442.191 73.9866 442.191 73.0845V73.0845Z" fill="#F5F5F5" fill-opacity="0.5"/>
<path d="M545 116.466H414.963H391.321V146.518H367.679V176.569H344.037V206.62H320.394V236.672H296.752V266.712H273.11V296.763H249.468V326.815H225.826V356.866H249.468H545V116.466Z" fill="#FAFAFA" fill-opacity="0.5"/>
<path d="M358.152 326.815H223.395V335.829H358.152V326.815Z" fill="#EBEBEB"/>
<path d="M381.794 296.763H247.038V305.778H381.794V296.763Z" fill="#EBEBEB"/>
<path d="M405.436 266.712H270.68V275.726H405.436V266.712Z" fill="#EBEBEB"/>
<path d="M429.078 236.661H294.322V245.675H429.078V236.661Z" fill="#EBEBEB"/>
<path d="M452.721 206.62H317.964V215.635H452.721V206.62Z" fill="#EBEBEB"/>
<path d="M476.363 176.569H341.606V185.583H476.363V176.569Z" fill="#EBEBEB"/>
<path d="M500.005 146.518H365.248V155.532H500.005V146.518Z" fill="#EBEBEB"/>
<path d="M523.647 116.466H388.89V125.481H523.647V116.466Z" fill="#EBEBEB"/>
<path d="M521.358 116.466V146.518H497.716V176.569H474.074V206.62H450.432V236.672H426.789V266.712H403.147V296.763H379.505V326.815H355.863V356.866H379.505H545V146.518V116.466H521.358Z" fill="white" fill-opacity="0.5"/>
<path d="M272.5 406.09C389.22 406.09 483.84 400.566 483.84 393.752C483.84 386.937 389.22 381.413 272.5 381.413C155.78 381.413 61.1599 386.937 61.1599 393.752C61.1599 400.566 155.78 406.09 272.5 406.09Z" fill="#F5F5F5" fill-opacity="0.5"/>
<path d="M398.013 116.63C399.539 121.742 407.409 131.312 408.03 138.277C408.652 145.242 395.234 156.382 395.234 156.382C395.234 156.382 385.206 122.854 391.484 118.941C397.763 115.028 398.013 116.63 398.013 116.63Z" fill="#263238"/>
<path d="M370.458 152.851C368.082 154.834 365.749 156.502 363.319 158.213C360.888 159.925 358.381 161.483 355.83 162.944C353.271 164.459 350.633 165.838 347.928 167.075C346.555 167.696 345.192 168.307 343.775 168.841C343.077 169.124 342.369 169.397 341.65 169.637L339.47 170.4C337.606 170.921 335.656 171.062 333.736 170.814C332.132 170.626 330.543 170.32 328.984 169.898C326.077 169.094 323.232 168.081 320.471 166.868C315.111 164.528 309.94 161.776 305.004 158.639L307.042 154.845C309.614 155.935 312.252 157.025 314.868 157.974C317.484 158.922 320.122 159.925 322.76 160.742C325.332 161.585 327.952 162.269 330.608 162.791C331.827 163.03 333.062 163.179 334.303 163.238C335.228 163.31 336.159 163.214 337.05 162.955C339.537 162.003 341.968 160.912 344.331 159.685C345.541 159.053 346.74 158.41 347.917 157.712C349.094 157.014 350.293 156.339 351.46 155.619C353.803 154.17 356.092 152.633 358.359 151.052C360.626 149.472 362.883 147.782 364.899 146.18L370.458 152.851Z" fill="#E58A7B"/>
<path d="M376.214 141.242C373.51 139.128 362.327 146.049 358.937 148.938L361.411 163.903C361.411 163.903 377.489 157.167 378.448 152.567C379.462 147.76 378.23 142.855 376.214 141.242Z" fill="#319595"/>
<path opacity="0.2" d="M376.214 141.242C373.51 139.128 362.327 146.049 358.937 148.938L361.411 163.903C361.411 163.903 377.489 157.167 378.448 152.567C379.462 147.76 378.23 142.855 376.214 141.242Z" fill="black"/>
<path d="M413.829 186.532L379.887 193.148C362.349 145.657 366.164 144.098 366.164 144.098C368.63 142.743 371.178 141.541 373.794 140.501L374.251 140.327C376.431 139.531 376.867 139.411 379.767 138.561C384.759 137.373 389.413 136.381 395.179 135.563L396.269 135.411C397.359 135.28 398.351 135.171 399.354 135.073C400.03 134.997 400.706 134.953 401.349 134.909L403.529 134.789C407.257 134.604 409.927 134.659 409.927 134.659C408.892 164.317 410.57 172.83 413.829 186.532Z" fill="#319595"/>
<path opacity="0.2" d="M413.829 186.532L379.887 193.148C362.349 145.657 366.164 144.098 366.164 144.098C368.63 142.743 371.178 141.541 373.794 140.501L374.251 140.327C376.431 139.531 376.867 139.411 379.767 138.561C384.759 137.373 389.413 136.381 395.179 135.563L396.269 135.411C397.359 135.28 398.351 135.171 399.354 135.073C400.03 134.997 400.706 134.953 401.349 134.909L403.529 134.789C407.257 134.604 409.927 134.659 409.927 134.659C408.892 164.317 410.57 172.83 413.829 186.532Z" fill="black"/>
<path d="M387.244 120.042C385.064 123.65 392.967 125.317 397.643 121.622C401.382 118.657 400.499 111.812 397.294 110.221C394.09 108.629 387.244 120.042 387.244 120.042Z" fill="#319595"/>
<path opacity="0.4" d="M387.244 120.042C385.064 123.65 392.967 125.317 397.643 121.622C401.382 118.657 400.499 111.812 397.294 110.221C394.09 108.629 387.244 120.042 387.244 120.042Z" fill="black"/>
<path d="M420.282 383.102L411.791 383.734L408.685 364.191L417.176 363.559L420.282 383.102Z" fill="#E58A7B"/>
<path d="M480.341 355.787L473.136 360.321L460.307 345.105L467.512 340.56L480.341 355.787Z" fill="#E58A7B"/>
<path d="M408.685 364.191L410.407 375.047L418.778 373.641L417.187 363.569L408.685 364.191Z" fill="#CF6F64"/>
<path d="M467.523 340.57L460.307 345.105L465.626 351.405L472.995 347.056L467.523 340.57Z" fill="#CF6F64"/>
<path d="M380.41 193.148C380.41 193.148 380.29 260.532 385.795 285.907C391.528 312.307 408.39 372.366 408.39 372.366L420.62 370.785C420.62 370.785 411.061 310.116 406.984 283.88C402.548 255.289 405.273 188.308 405.273 188.308L380.41 193.148Z" fill="#319595"/>
<path opacity="0.7" d="M380.41 193.148C380.41 193.148 380.29 260.532 385.795 285.907C391.528 312.307 408.39 372.366 408.39 372.366L420.62 370.785C420.62 370.785 411.061 310.116 406.984 283.88C402.548 255.289 405.273 188.308 405.273 188.308L380.41 193.148Z" fill="black"/>
<path opacity="0.5" d="M404.51 218.174L398.515 212.201C398.744 238.089 400.194 250.874 405.175 264.805C404.39 250.079 404.325 232.66 404.51 218.174Z" fill="black"/>
<path d="M388.847 191.404C388.847 191.404 407.126 247.092 416.195 279.171C425.765 313.015 462.454 350.446 462.454 350.446L472.984 344.364C472.984 344.364 447.914 308.83 438.692 277.252C419.944 213.149 427.651 199.568 413.818 186.532L388.847 191.404Z" fill="#319595"/>
<path opacity="0.7" d="M388.847 191.404C388.847 191.404 407.126 247.092 416.195 279.171C425.765 313.015 462.454 350.446 462.454 350.446L472.984 344.364C472.984 344.364 447.914 308.83 438.692 277.252C419.944 213.149 427.651 199.568 413.818 186.532L388.847 191.404Z" fill="black"/>
<path d="M374.48 100.378C379.342 102.002 383.756 114.068 383.942 118.821C384.127 123.573 369.859 130.124 369.859 130.124C369.859 130.124 363.569 114.864 365.324 105.054C366.087 100.792 374.48 100.378 374.48 100.378Z" fill="#263238"/>
<path d="M307.761 155.249L301.995 148.97L300.11 156.84C300.11 156.84 304.208 160.459 307.522 159.216L307.761 155.249Z" fill="#E58A7B"/>
<path d="M296.153 147.172L292.12 150.376L300.11 156.84L301.995 148.97L296.153 147.172Z" fill="#E58A7B"/>
<path d="M470.88 358.697L477.616 351.907C477.733 351.79 477.887 351.72 478.051 351.708C478.215 351.696 478.378 351.743 478.51 351.841L484.647 356.397C484.799 356.516 484.923 356.667 485.013 356.838C485.102 357.009 485.155 357.197 485.166 357.389C485.177 357.582 485.148 357.775 485.079 357.955C485.01 358.136 484.903 358.299 484.767 358.436C482.369 360.757 481.104 361.76 478.139 364.747C476.319 366.589 473.845 369.455 471.327 371.995C468.809 374.535 466.16 372.17 466.967 370.905C470.64 365.161 469.986 363.014 470.237 360.092C470.275 359.565 470.503 359.069 470.88 358.697Z" fill="#263238"/>
<path d="M411.224 382.514H420.795C420.963 382.513 421.126 382.572 421.255 382.68C421.385 382.787 421.472 382.937 421.503 383.102L423.007 390.667C423.041 390.853 423.033 391.044 422.984 391.227C422.936 391.41 422.847 391.579 422.726 391.724C422.604 391.869 422.452 391.985 422.28 392.064C422.108 392.143 421.921 392.183 421.732 392.182C418.386 392.127 416.772 391.931 412.565 391.931C409.982 391.931 404.641 392.193 401.066 392.193C397.49 392.193 397.109 388.661 398.58 388.345C405.12 386.906 407.682 384.933 409.829 383.037C410.218 382.704 410.712 382.519 411.224 382.514Z" fill="#263238"/>
<g style="mix-blend-mode:multiply" opacity="0.27">
<path d="M411.028 151.848L405.796 154.965L411.835 177.67C410.516 170.792 411.104 163.238 411.028 151.848Z" fill="#319595"/>
</g>
<path d="M381.293 116.401C385.01 119.508 390.405 124.031 396.76 118.745C402.21 114.188 406.025 102.231 396.248 101.795C391.136 101.566 381.293 116.401 381.293 116.401Z" fill="#263238"/>
<path d="M390.274 118.527C390.274 123.671 391.07 132.947 395.179 135.585C395.179 135.585 394.809 140.882 385.587 142.67C375.461 144.643 379.767 138.583 379.767 138.583C385.042 136.185 384.127 132.108 382.383 128.446L390.274 118.527Z" fill="#E58A7B"/>
<path d="M387.059 122.57L382.394 128.446C382.803 129.295 383.138 130.177 383.397 131.083C385.446 130.364 387.898 127.486 387.691 125.23C387.646 124.312 387.432 123.41 387.059 122.57V122.57Z" fill="#CF6F64"/>
<path d="M390.765 106.711C391.855 115.093 392.52 118.614 389.163 123.682C384.116 131.312 373.587 130.822 370.001 122.941C366.731 115.845 365.51 103.321 372.965 98.4706C374.605 97.3853 376.495 96.7377 378.455 96.5892C380.415 96.4407 382.381 96.7964 384.165 97.6223C385.949 98.4483 387.493 99.7171 388.648 101.308C389.803 102.899 390.532 104.759 390.765 106.711Z" fill="#E58A7B"/>
<path d="M376.203 92.0287C370.535 96.0508 381.903 97.2389 381.914 103.07C381.914 105.479 385.871 113.12 391.495 112.684L396.945 103.005C402.679 93.74 389.13 82.84 376.203 92.0287Z" fill="#263238"/>
<path d="M376.203 92.0286C366.229 91.5054 361.88 99.4407 363.025 106.569C369.982 104.834 377.179 104.264 384.323 104.88C397.992 106.275 376.203 92.0286 376.203 92.0286Z" fill="#263238"/>
<path d="M393.49 113.938C393.628 115.565 393.115 117.18 392.062 118.428C390.656 120.074 388.792 119.104 388.138 117.153C387.582 115.387 387.648 112.412 389.544 111.474C389.963 111.28 390.424 111.194 390.884 111.223C391.345 111.252 391.791 111.395 392.183 111.639C392.575 111.884 392.899 112.222 393.127 112.623C393.355 113.024 393.48 113.476 393.49 113.938V113.938Z" fill="#E58A7B"/>
<path d="M378.655 111.474C378.786 112.15 378.535 112.76 378.099 112.848C377.663 112.935 377.195 112.455 377.064 111.758C376.933 111.06 377.184 110.461 377.62 110.373C378.056 110.286 378.524 110.798 378.655 111.474Z" fill="#263238"/>
<path d="M371.036 112.957C371.167 113.632 370.916 114.254 370.48 114.341C370.044 114.428 369.575 113.949 369.445 113.251C369.314 112.553 369.565 111.954 370.001 111.878C370.437 111.801 370.905 112.27 371.036 112.957Z" fill="#263238"/>
<path d="M370.208 111.888L368.496 111.747C368.496 111.747 369.575 112.848 370.208 111.888Z" fill="#263238"/>
<path d="M373.281 113.731C372.975 115.382 372.447 116.984 371.712 118.494C372.103 118.676 372.529 118.771 372.96 118.771C373.391 118.771 373.817 118.676 374.208 118.494L373.281 113.731Z" fill="#DF5753"/>
<path d="M377.053 120.674C377.006 120.675 376.96 120.658 376.925 120.628C376.889 120.598 376.864 120.557 376.857 120.51C376.852 120.485 376.853 120.458 376.858 120.432C376.864 120.407 376.875 120.383 376.89 120.361C376.905 120.34 376.925 120.322 376.947 120.308C376.969 120.295 376.994 120.285 377.02 120.281C377.863 120.135 378.659 119.792 379.344 119.281C380.03 118.77 380.585 118.104 380.966 117.338C380.976 117.314 380.991 117.292 381.009 117.273C381.028 117.255 381.05 117.24 381.074 117.23C381.098 117.22 381.125 117.214 381.151 117.214C381.177 117.214 381.203 117.219 381.228 117.229C381.252 117.239 381.274 117.254 381.293 117.273C381.311 117.291 381.326 117.313 381.336 117.338C381.346 117.362 381.352 117.388 381.352 117.414C381.352 117.441 381.347 117.467 381.337 117.491C380.937 118.323 380.344 119.047 379.606 119.601C378.868 120.155 378.007 120.523 377.096 120.674H377.053Z" fill="#263238"/>
<path d="M380.41 108.575C380.31 108.576 380.214 108.541 380.138 108.477C379.771 108.128 379.327 107.871 378.842 107.727C378.357 107.583 377.845 107.556 377.347 107.648C377.237 107.676 377.121 107.659 377.024 107.6C376.927 107.542 376.857 107.448 376.829 107.338C376.802 107.228 376.819 107.112 376.877 107.014C376.936 106.917 377.03 106.847 377.14 106.82C377.769 106.696 378.418 106.724 379.033 106.9C379.649 107.076 380.215 107.396 380.683 107.834C380.757 107.909 380.799 108.011 380.799 108.117C380.799 108.223 380.757 108.325 380.683 108.4C380.652 108.447 380.612 108.487 380.565 108.517C380.518 108.547 380.465 108.567 380.41 108.575V108.575Z" fill="#263238"/>
<path d="M366.818 110.09C366.767 110.101 366.715 110.101 366.665 110.09C366.615 110.07 366.57 110.04 366.532 110.002C366.494 109.964 366.464 109.919 366.444 109.869C366.423 109.819 366.413 109.766 366.414 109.712C366.414 109.658 366.426 109.605 366.447 109.556C366.679 108.96 367.05 108.428 367.53 108.005C368.01 107.582 368.584 107.28 369.205 107.125C369.257 107.114 369.311 107.114 369.364 107.125C369.416 107.135 369.466 107.157 369.51 107.187C369.554 107.218 369.591 107.257 369.619 107.303C369.647 107.348 369.666 107.399 369.674 107.452C369.685 107.504 369.685 107.557 369.675 107.609C369.665 107.661 369.645 107.71 369.615 107.754C369.586 107.797 369.548 107.835 369.503 107.864C369.459 107.892 369.409 107.912 369.357 107.921C368.868 108.054 368.415 108.3 368.037 108.639C367.659 108.978 367.364 109.4 367.177 109.872C367.142 109.937 367.091 109.992 367.027 110.03C366.964 110.068 366.892 110.089 366.818 110.09Z" fill="#263238"/>
<path d="M468.351 362.654C468.164 362.649 467.981 362.599 467.818 362.508C467.655 362.417 467.516 362.287 467.414 362.131C467.336 362.038 467.284 361.927 467.263 361.809C467.242 361.69 467.253 361.568 467.294 361.455C467.675 360.43 470.684 359.776 471.022 359.7C471.061 359.693 471.101 359.698 471.138 359.713C471.175 359.728 471.206 359.754 471.229 359.787C471.252 359.819 471.264 359.857 471.264 359.896C471.264 359.935 471.252 359.973 471.229 360.005C470.64 360.975 469.485 362.599 468.406 362.654H468.351ZM470.629 360.201C469.441 360.507 467.872 361.052 467.675 361.597C467.656 361.647 467.652 361.701 467.664 361.754C467.675 361.806 467.702 361.854 467.741 361.891C467.808 362.003 467.904 362.096 468.019 362.159C468.134 362.222 468.264 362.254 468.395 362.251C468.973 362.218 469.79 361.466 470.629 360.201Z" fill="#319595"/>
<path d="M470.139 360.201C469.049 360.201 467.686 359.929 467.283 359.34C467.193 359.206 467.152 359.046 467.166 358.885C467.18 358.725 467.248 358.574 467.359 358.457C467.455 358.336 467.575 358.236 467.713 358.165C467.85 358.093 468.001 358.052 468.155 358.043H468.242C469.463 358.043 471.142 359.689 471.207 359.754C471.233 359.779 471.252 359.81 471.262 359.845C471.271 359.88 471.271 359.916 471.262 359.951C471.252 359.984 471.234 360.015 471.209 360.04C471.184 360.065 471.153 360.083 471.12 360.092C470.799 360.17 470.469 360.206 470.139 360.201V360.201ZM468.242 358.446H468.177C468.079 358.45 467.983 358.475 467.896 358.52C467.81 358.566 467.734 358.63 467.675 358.708C467.523 358.915 467.566 359.035 467.621 359.111C467.948 359.613 469.616 359.896 470.64 359.776C469.987 359.11 469.153 358.648 468.242 358.446V358.446Z" fill="#319595"/>
<path d="M408.096 384.007C407.363 384.072 406.629 383.887 406.014 383.484C405.869 383.37 405.754 383.222 405.682 383.052C405.609 382.883 405.581 382.697 405.6 382.514C405.599 382.404 405.627 382.296 405.68 382.201C405.734 382.105 405.811 382.025 405.905 381.969C406.908 381.38 410.418 383.124 410.81 383.32C410.847 383.34 410.877 383.37 410.897 383.407C410.916 383.444 410.924 383.486 410.919 383.527C410.914 383.568 410.897 383.607 410.869 383.638C410.842 383.669 410.806 383.691 410.766 383.702C409.888 383.886 408.994 383.988 408.096 384.007V384.007ZM406.483 382.241C406.355 382.233 406.227 382.259 406.112 382.317C406.075 382.337 406.045 382.367 406.026 382.404C406.006 382.441 405.998 382.483 406.003 382.525C405.992 382.647 406.011 382.771 406.059 382.885C406.106 382.999 406.181 383.1 406.276 383.179C406.821 383.647 408.227 383.724 410.08 383.418C408.955 382.828 407.739 382.43 406.483 382.241V382.241Z" fill="#319595"/>
<path d="M410.723 383.68H410.647C409.557 383.211 407.453 381.358 407.606 380.41C407.606 380.192 407.802 379.909 408.347 379.854H408.51C410.407 379.854 410.897 383.32 410.919 383.473C410.924 383.509 410.92 383.546 410.906 383.581C410.893 383.615 410.871 383.645 410.843 383.669C410.805 383.684 410.763 383.688 410.723 383.68ZM408.543 380.236H408.423C408.074 380.236 408.052 380.399 408.052 380.443C407.965 381.02 409.404 382.47 410.494 383.113C410.276 382.263 409.72 380.257 408.499 380.257L408.543 380.236Z" fill="#319595"/>
<path d="M377.827 110.406L376.115 110.253C376.115 110.253 377.194 111.365 377.827 110.406Z" fill="#263238"/>
<path d="M385.315 149.919C367.079 153.984 372.715 142.953 373.805 140.523L374.262 140.348C376.442 139.553 376.878 139.433 379.778 138.583C384.837 137.217 389.988 136.215 395.19 135.585L396.28 135.432C397.37 135.291 398.362 135.182 399.365 135.095C400.041 135.018 400.717 134.975 401.36 134.931L403.54 134.8C403.91 136.501 404.815 145.591 385.315 149.919Z" fill="#E58A7B"/>
<path d="M413.938 184.439L416.064 187.186C416.227 187.393 415.998 187.687 415.606 187.763L380.007 194.696C379.701 194.761 379.418 194.696 379.364 194.467L378.459 191.491C378.459 191.284 378.633 191.055 378.96 190.99L413.339 184.297C413.442 184.267 413.552 184.264 413.657 184.289C413.763 184.313 413.859 184.365 413.938 184.439V184.439Z" fill="#26395A"/>
<path d="M410.069 189.18L410.995 189.006C411.181 189.006 411.301 188.853 411.268 188.733L410.069 184.875C410.069 184.755 409.851 184.7 409.666 184.733L408.75 184.908C408.565 184.908 408.445 185.071 408.478 185.18L409.677 189.05C409.709 189.159 409.895 189.224 410.069 189.18Z" fill="#319595"/>
<path d="M389.217 202.042L382.121 199.405L383.211 206.152C383.211 206.152 388.356 208.005 390.983 205.628L389.217 202.042Z" fill="#E58A7B"/>
<path d="M375.363 201.192L373.674 205.618L383.211 206.152L382.121 199.405L375.363 201.192Z" fill="#E58A7B"/>
<path d="M382.655 194.521L383.582 194.347C383.756 194.347 383.887 194.194 383.844 194.074L382.645 190.216C382.645 190.096 382.437 190.041 382.252 190.074L381.326 190.249C381.14 190.249 381.02 190.412 381.064 190.521L382.263 194.391C382.296 194.5 382.47 194.565 382.655 194.521Z" fill="#319595"/>
<path d="M396.368 191.84L397.283 191.666C397.469 191.666 397.588 191.513 397.556 191.393L396.357 187.534C396.357 187.415 396.139 187.36 395.953 187.393L395.038 187.567C394.853 187.567 394.733 187.731 394.765 187.84L395.964 191.709C396.008 191.772 396.071 191.819 396.144 191.843C396.217 191.867 396.295 191.865 396.368 191.84Z" fill="#319595"/>
<path d="M392.487 131.258C393.261 130.963 394.231 133.688 393.991 134.037C393.436 134.833 383.255 137.612 382.797 136.054C382.769 135.209 382.898 134.366 383.179 133.569C383.473 133.045 385.729 134.005 392.487 131.258Z" fill="#319595"/>
<path d="M390.765 131.323C391.157 130.418 392.28 128.969 393.261 129.797C394.242 130.626 394.656 132.413 394.013 132.707C393.37 133.002 390.089 132.838 390.765 131.323Z" fill="#319595"/>
<path d="M392.847 131.792C393.523 131.072 395.027 130.081 395.714 131.192C396.4 132.304 396.15 134.124 395.452 134.179C394.754 134.233 391.702 132.98 392.847 131.792Z" fill="#319595"/>
<path d="M393.218 131.628C393.163 131.049 393.276 130.466 393.545 129.949C393.814 129.433 394.226 129.006 394.733 128.718C395.975 127.911 397.185 127.388 397.665 126.538C397.871 127.335 397.912 128.166 397.785 128.98C397.534 130.146 393.664 131.04 393.926 132.053L393.218 131.628Z" fill="#319595"/>
<path d="M393.054 131.574C392.693 131.116 392.472 130.564 392.418 129.984C392.364 129.404 392.479 128.82 392.749 128.304C393.337 126.952 394.079 125.862 394.035 124.903C394.64 125.461 395.126 126.136 395.463 126.887C395.877 127.977 393.119 130.844 393.893 131.563L393.054 131.574Z" fill="#319595"/>
<path d="M468.863 344.505C468.841 344.505 468.82 344.498 468.8 344.487C468.781 344.475 468.766 344.459 468.754 344.44C468.504 344.091 443.586 308.535 434.452 277.296C428.491 257.257 423.91 236.834 420.74 216.169C418.854 204.528 417.71 197.497 413.96 191.731C413.935 191.705 413.921 191.669 413.921 191.633C413.921 191.596 413.935 191.561 413.96 191.535C413.986 191.512 414.019 191.5 414.053 191.5C414.087 191.5 414.12 191.512 414.145 191.535C417.939 197.355 419.083 204.408 420.969 216.082C424.153 236.717 428.742 257.111 434.703 277.122C443.826 308.317 468.722 343.83 468.972 344.189C468.993 344.216 469.004 344.248 469.004 344.282C469.004 344.315 468.993 344.348 468.972 344.375C468.971 344.405 468.959 344.435 468.94 344.458C468.92 344.482 468.893 344.498 468.863 344.505V344.505Z" fill="#319595"/>
<path opacity="0.4" d="M468.863 344.505C468.841 344.505 468.82 344.498 468.8 344.487C468.781 344.475 468.766 344.459 468.754 344.44C468.504 344.091 443.586 308.535 434.452 277.296C428.491 257.257 423.91 236.834 420.74 216.169C418.854 204.528 417.71 197.497 413.96 191.731C413.935 191.705 413.921 191.669 413.921 191.633C413.921 191.596 413.935 191.561 413.96 191.535C413.986 191.512 414.019 191.5 414.053 191.5C414.087 191.5 414.12 191.512 414.145 191.535C417.939 197.355 419.083 204.408 420.969 216.082C424.153 236.717 428.742 257.111 434.703 277.122C443.826 308.317 468.722 343.83 468.972 344.189C468.993 344.216 469.004 344.248 469.004 344.282C469.004 344.315 468.993 344.348 468.972 344.375C468.971 344.405 468.959 344.435 468.94 344.458C468.92 344.482 468.893 344.498 468.863 344.505V344.505Z" fill="black"/>
<path d="M422.811 370.742L406.156 372.9L405.066 368.256L422.408 364.583L422.811 370.742Z" fill="#319595"/>
<path d="M473.867 343.993L461.582 351.089L457.44 347.546L470.88 338.456L473.867 343.993Z" fill="#319595"/>
<path d="M416.216 146.202C416.805 149.232 417.143 152.088 417.47 155.042C417.797 157.995 417.917 160.917 418.004 163.871C418.091 166.848 418.026 169.827 417.808 172.798C417.688 174.291 417.557 175.784 417.35 177.288C417.263 178.03 417.165 178.782 417.023 179.534L416.62 181.845C416.173 183.728 415.354 185.503 414.211 187.066C413.273 188.38 412.238 189.623 411.115 190.783C409.012 192.943 406.753 194.947 404.357 196.778C399.722 200.346 394.817 203.55 389.686 206.359L387.353 202.74C389.533 201.007 391.713 199.219 393.893 197.399C396.073 195.579 398.144 193.737 400.139 191.818C402.11 189.972 403.97 188.01 405.709 185.943C406.507 184.987 407.236 183.974 407.889 182.913C408.404 182.14 408.773 181.279 408.979 180.373C409.333 177.727 409.541 175.063 409.6 172.394C409.6 171.032 409.6 169.669 409.6 168.307C409.6 166.944 409.546 165.56 409.48 164.187C409.349 161.44 409.099 158.737 408.804 155.946C408.51 153.156 408.129 150.398 407.714 147.815L416.216 146.202Z" fill="#E58A7B"/>
<path d="M414.898 136.937C419.552 140.708 418.44 151.913 418.44 151.913L402.744 157.08C402.744 157.08 403.464 144.163 404.248 139.52C405.164 133.994 410.309 133.22 414.898 136.937Z" fill="#319595"/>
<path opacity="0.2" d="M414.898 136.937C419.552 140.708 418.44 151.913 418.44 151.913L402.744 157.08C402.744 157.08 403.464 144.163 404.248 139.52C405.164 133.994 410.309 133.22 414.898 136.937Z" fill="black"/>
<path d="M207.547 183.698C206.938 181.055 205.451 178.697 203.329 177.008C201.206 175.319 198.574 174.4 195.862 174.4H108.662C105.482 174.4 102.432 175.663 100.184 177.912C97.9353 180.16 96.6721 183.21 96.6721 186.39V380.214C96.6721 383.394 97.9353 386.443 100.184 388.692C102.432 390.941 105.482 392.204 108.662 392.204H385.522C388.702 392.204 391.752 390.941 394 388.692C396.249 386.443 397.512 383.394 397.512 380.214V217.401C397.512 214.221 396.249 211.171 394 208.922C391.752 206.674 388.702 205.411 385.522 205.411H234.83C228.496 205.412 222.35 203.265 217.394 199.321C212.439 195.377 208.967 189.87 207.547 183.698V183.698Z" fill="#319595"/>
<path opacity="0.6" d="M207.547 183.698C206.938 181.055 205.451 178.697 203.329 177.008C201.206 175.319 198.574 174.4 195.862 174.4H108.662C105.482 174.4 102.432 175.663 100.184 177.912C97.9353 180.16 96.6721 183.21 96.6721 186.39V380.214C96.6721 383.394 97.9353 386.443 100.184 388.692C102.432 390.941 105.482 392.204 108.662 392.204H385.522C388.702 392.204 391.752 390.941 394 388.692C396.249 386.443 397.512 383.394 397.512 380.214V217.401C397.512 214.221 396.249 211.171 394 208.922C391.752 206.674 388.702 205.411 385.522 205.411H234.83C228.496 205.412 222.35 203.265 217.394 199.321C212.439 195.377 208.967 189.87 207.547 183.698V183.698Z" fill="black"/>
<path opacity="0.22" d="M176.765 123.333L184.537 148.502C185.529 151.705 187.752 154.383 190.717 155.949C193.683 157.514 197.148 157.839 200.353 156.851L225.51 149.079L176.765 123.333Z" fill="#319595"/>
<path d="M176.765 123.333L86.8403 151.118C85.2528 151.605 83.7771 152.401 82.4975 153.46C81.218 154.518 80.1597 155.819 79.3832 157.287C78.6067 158.755 78.1272 160.361 77.9722 162.015C77.8173 163.668 77.9898 165.336 78.48 166.923L129.819 333.126C130.309 334.713 131.107 336.187 132.167 337.466C133.227 338.744 134.529 339.802 135.997 340.577C137.466 341.352 139.073 341.831 140.727 341.985C142.38 342.139 144.048 341.966 145.635 341.475L260.728 305.919C262.314 305.431 263.789 304.634 265.067 303.575C266.346 302.516 267.403 301.215 268.178 299.747C268.954 298.28 269.432 296.673 269.587 295.02C269.741 293.367 269.568 291.7 269.077 290.114L225.477 149.079L176.765 123.333Z" fill="#319595"/>
<path opacity="0.8" d="M176.765 123.333L86.8403 151.118C85.2528 151.605 83.7771 152.401 82.4975 153.46C81.218 154.518 80.1597 155.819 79.3832 157.287C78.6067 158.755 78.1272 160.361 77.9722 162.015C77.8173 163.668 77.9898 165.336 78.48 166.923L129.819 333.126C130.309 334.713 131.107 336.187 132.167 337.466C133.227 338.744 134.529 339.802 135.997 340.577C137.466 341.352 139.073 341.831 140.727 341.985C142.38 342.139 144.048 341.966 145.635 341.475L260.728 305.919C262.314 305.431 263.789 304.634 265.067 303.575C266.346 302.516 267.403 301.215 268.178 299.747C268.954 298.28 269.432 296.673 269.587 295.02C269.741 293.367 269.568 291.7 269.077 290.114L225.477 149.079L176.765 123.333Z" fill="white"/>
<g opacity="0.28">
<path opacity="0.28" d="M225.15 298.66L150.333 321.768C148.934 322.198 147.421 322.056 146.126 321.374C144.831 320.692 143.859 319.524 143.422 318.127V318.127C142.996 316.728 143.141 315.217 143.825 313.925C144.51 312.632 145.677 311.662 147.074 311.228L221.891 288.109C223.292 287.68 224.806 287.823 226.101 288.507C227.396 289.192 228.367 290.361 228.802 291.76V291.76C229.228 293.16 229.083 294.67 228.399 295.963C227.715 297.256 226.547 298.225 225.15 298.66V298.66Z" fill="#319595"/>
</g>
<g opacity="0.28">
<path opacity="0.28" d="M144.632 163.042L105.065 175.261C103.666 175.688 102.155 175.545 100.861 174.863C99.5663 174.181 98.5938 173.016 98.1545 171.621V171.621C97.7282 170.22 97.8728 168.708 98.5568 167.413C99.2407 166.119 100.409 165.147 101.806 164.71L141.373 152.491C142.772 152.058 144.286 152.199 145.582 152.881C146.877 153.564 147.849 154.733 148.284 156.132V156.132C148.71 157.532 148.565 159.045 147.881 160.339C147.197 161.634 146.029 162.605 144.632 163.042V163.042Z" fill="#319595"/>
</g>
<g opacity="0.28">
<path opacity="0.28" d="M176.918 176.002L111.518 196.2C110.122 196.619 108.616 196.471 107.329 195.788C106.041 195.104 105.075 193.94 104.64 192.548C104.211 191.151 104.353 189.64 105.035 188.347C105.717 187.053 106.884 186.083 108.281 185.649L173.681 165.451C175.08 165.021 176.592 165.163 177.887 165.845C179.182 166.527 180.154 167.695 180.591 169.092V169.092C181.014 170.495 180.865 172.009 180.177 173.303C179.489 174.597 178.318 175.567 176.918 176.002Z" fill="#319595"/>
</g>
<g opacity="0.28">
<path opacity="0.28" d="M213.433 187.654L117.993 217.084C116.595 217.514 115.084 217.372 113.791 216.689C112.497 216.007 111.527 214.84 111.093 213.444C110.666 212.045 110.809 210.533 111.491 209.239C112.173 207.945 113.338 206.972 114.733 206.533L210.174 177.103C211.572 176.677 213.081 176.82 214.374 177.502C215.666 178.184 216.637 179.349 217.073 180.744V180.744C217.503 182.143 217.362 183.655 216.679 184.95C215.997 186.245 214.83 187.218 213.433 187.654V187.654Z" fill="#319595"/>
</g>
<g opacity="0.28">
<path opacity="0.28" d="M219.897 208.582L164.416 225.728C163.016 226.154 161.506 226.009 160.213 225.325C158.92 224.641 157.951 223.473 157.516 222.077C157.089 220.679 157.233 219.169 157.915 217.877C158.597 216.584 159.762 215.614 161.157 215.177L216.638 198.031C218.038 197.608 219.549 197.754 220.843 198.437C222.137 199.121 223.109 200.287 223.548 201.683V201.683C223.974 203.082 223.829 204.593 223.145 205.885C222.461 207.178 221.293 208.148 219.897 208.582V208.582Z" fill="#319595"/>
</g>
<g opacity="0.28">
<path opacity="0.28" d="M138.975 233.587L124.467 238.067C123.068 238.497 121.556 238.355 120.261 237.673C118.966 236.99 117.993 235.823 117.557 234.426V234.426C117.127 233.026 117.271 231.512 117.955 230.217C118.639 228.922 119.809 227.95 121.208 227.516L135.716 223.036C137.115 222.609 138.626 222.752 139.92 223.434C141.215 224.116 142.187 225.281 142.627 226.676V226.676C143.05 228.077 142.904 229.588 142.22 230.882C141.537 232.175 140.371 233.147 138.975 233.587V233.587Z" fill="#319595"/>
</g>
<g opacity="0.28">
<path opacity="0.28" d="M226.371 229.521L130.931 259.006C129.532 259.432 128.021 259.287 126.728 258.603C125.435 257.919 124.466 256.751 124.031 255.354V255.354C123.602 253.957 123.744 252.446 124.426 251.152C125.108 249.859 126.275 248.889 127.672 248.455L223.112 218.97C224.51 218.544 226.019 218.687 227.312 219.369C228.604 220.051 229.575 221.216 230.012 222.611V222.611C230.441 224.01 230.3 225.522 229.618 226.817C228.935 228.112 227.768 229.085 226.371 229.521V229.521Z" fill="#319595"/>
</g>
<g opacity="0.28">
<path opacity="0.28" d="M196.004 261.829L137.395 279.934C135.997 280.36 134.487 280.217 133.195 279.535C131.902 278.853 130.932 277.688 130.495 276.293V276.293C130.068 274.894 130.211 273.383 130.893 272.089C131.575 270.794 132.74 269.822 134.135 269.383L192.745 251.278C194.145 250.851 195.658 250.996 196.952 251.68C198.247 252.364 199.218 253.532 199.655 254.929V254.929C200.084 256.328 199.941 257.841 199.256 259.134C198.572 260.428 197.402 261.397 196.004 261.829Z" fill="#319595"/>
</g>
<g opacity="0.28">
<path opacity="0.28" d="M232.835 250.46L217.194 255.289C215.793 255.715 214.281 255.571 212.986 254.887C211.692 254.203 210.72 253.035 210.283 251.637V251.637C209.857 250.238 210.002 248.727 210.686 247.435C211.37 246.142 212.538 245.172 213.934 244.738L229.576 239.909C230.974 239.48 232.485 239.622 233.778 240.304C235.071 240.986 236.041 242.153 236.476 243.55V243.55C236.905 244.949 236.764 246.461 236.081 247.756C235.399 249.051 234.232 250.023 232.835 250.46V250.46Z" fill="#319595"/>
</g>
<g opacity="0.28">
<path opacity="0.28" d="M239.299 271.41L143.88 300.84C142.479 301.269 140.966 301.126 139.671 300.442C138.375 299.757 137.404 298.587 136.969 297.188V297.188C136.54 295.789 136.684 294.277 137.369 292.984C138.053 291.69 139.223 290.721 140.621 290.289L236.05 260.804C237.451 260.381 238.962 260.527 240.256 261.21C241.55 261.894 242.522 263.06 242.961 264.456V264.456C243.18 265.153 243.259 265.886 243.193 266.614C243.127 267.342 242.918 268.049 242.578 268.695C242.237 269.342 241.772 269.914 241.209 270.38C240.647 270.846 239.997 271.196 239.299 271.41V271.41Z" fill="#319595"/>
</g>
<path d="M241.348 60.8329L269.884 124.424C270.625 126.084 270.678 127.969 270.033 129.669C269.388 131.368 268.096 132.743 266.44 133.492L145.384 187.829C143.725 188.573 141.838 188.628 140.138 187.982C138.437 187.336 137.063 186.042 136.315 184.384L107.768 120.794C107.021 119.133 106.964 117.243 107.61 115.541C108.256 113.838 109.552 112.461 111.213 111.714L232.268 57.3776C233.931 56.6371 235.819 56.5848 237.521 57.2322C239.222 57.8797 240.598 59.1742 241.348 60.8329V60.8329Z" fill="#319595"/>
<path opacity="0.3" d="M241.348 60.8329L269.884 124.424C270.625 126.084 270.678 127.969 270.033 129.669C269.388 131.368 268.096 132.743 266.44 133.492L145.384 187.829C143.725 188.573 141.838 188.628 140.138 187.982C138.437 187.336 137.063 186.042 136.315 184.384L107.768 120.794C107.021 119.133 106.964 117.243 107.61 115.541C108.256 113.838 109.552 112.461 111.213 111.714L232.268 57.3776C233.931 56.6371 235.819 56.5848 237.521 57.2322C239.222 57.8797 240.598 59.1742 241.348 60.8329V60.8329Z" fill="black"/>
<path d="M222.269 57.6907L218.401 59.4261L218.847 60.4206L222.715 58.6852L222.269 57.6907Z" fill="#319595"/>
<path d="M212.982 61.8514L200.919 67.2628L201.365 68.2573L213.428 62.8459L212.982 61.8514Z" fill="#319595"/>
<path d="M107.661 127.203L106.667 127.649L109.971 135.007L110.965 134.561L107.661 127.203Z" fill="#319595"/>
<path opacity="0.6" d="M237.293 57.1487L206.076 118.298C203.179 123.965 198.435 128.475 192.628 131.081C186.821 133.688 180.298 134.234 174.139 132.631L107.703 115.311C108.385 113.717 109.636 112.435 111.213 111.714L232.268 57.3776C233.854 56.6685 235.649 56.5867 237.293 57.1487Z" fill="#319595"/>
<path d="M280.206 135.411L186.27 141.21C184.611 141.308 182.987 141.733 181.492 142.46C179.997 143.187 178.659 144.202 177.557 145.446C176.454 146.69 175.608 148.14 175.066 149.711C174.525 151.283 174.298 152.946 174.4 154.606L185.115 328.221C185.215 329.881 185.641 331.506 186.37 333.001C187.099 334.497 188.116 335.833 189.362 336.935C190.609 338.037 192.061 338.882 193.634 339.421C195.208 339.961 196.872 340.185 198.533 340.08L318.76 332.657C320.417 332.557 322.039 332.131 323.532 331.403C325.024 330.675 326.359 329.66 327.459 328.416C328.558 327.171 329.402 325.722 329.94 324.151C330.479 322.58 330.702 320.918 330.597 319.261L321.55 171.926L280.206 135.411Z" fill="#319595"/>
<path opacity="0.8" d="M280.206 135.411L186.27 141.21C184.611 141.308 182.987 141.733 181.492 142.46C179.997 143.187 178.659 144.202 177.557 145.446C176.454 146.69 175.608 148.14 175.066 149.711C174.525 151.283 174.298 152.946 174.4 154.606L185.115 328.221C185.215 329.881 185.641 331.506 186.37 333.001C187.099 334.497 188.116 335.833 189.362 336.935C190.609 338.037 192.061 338.882 193.634 339.421C195.208 339.961 196.872 340.185 198.533 340.08L318.76 332.657C320.417 332.557 322.039 332.131 323.532 331.403C325.024 330.675 326.359 329.66 327.459 328.416C328.558 327.171 329.402 325.722 329.94 324.151C330.479 322.58 330.702 320.918 330.597 319.261L321.55 171.926L280.206 135.411Z" fill="white"/>
<g opacity="0.22">
<path opacity="0.22" d="M285.885 317.19L207.721 322.019C206.261 322.102 204.827 321.605 203.733 320.635C202.638 319.665 201.972 318.301 201.879 316.841V316.841C201.795 315.382 202.291 313.948 203.258 312.852C204.226 311.756 205.587 311.086 207.046 310.988L285.209 306.17C286.67 306.084 288.105 306.578 289.202 307.546C290.298 308.514 290.967 309.877 291.063 311.337V311.337C291.149 312.799 290.653 314.235 289.683 315.333C288.712 316.43 287.347 317.097 285.885 317.19V317.19Z" fill="#319595"/>
</g>
<g opacity="0.22">
<path opacity="0.22" d="M239.626 166.421L198.282 168.95C196.822 169.034 195.389 168.538 194.293 167.571C193.197 166.603 192.527 165.242 192.429 163.783V163.783C192.345 162.322 192.842 160.887 193.812 159.791C194.782 158.694 196.146 158.025 197.606 157.93L238.95 155.38C240.409 155.293 241.843 155.788 242.938 156.756C244.033 157.725 244.7 159.087 244.792 160.546C244.885 162.01 244.393 163.451 243.424 164.552C242.455 165.654 241.089 166.326 239.626 166.421V166.421Z" fill="#319595"/>
</g>
<g opacity="0.22">
<path opacity="0.22" d="M267.944 186.63L199.633 190.837C198.173 190.927 196.736 190.433 195.638 189.464C194.541 188.496 193.873 187.131 193.78 185.671V185.671C193.694 184.209 194.19 182.772 195.16 181.675C196.131 180.578 197.496 179.91 198.958 179.817L267.257 175.61C268.718 175.52 270.155 176.014 271.252 176.983C272.35 177.951 273.018 179.316 273.11 180.777V180.777C273.197 182.237 272.702 183.672 271.734 184.769C270.766 185.865 269.404 186.534 267.944 186.63V186.63Z" fill="#319595"/>
</g>
<g opacity="0.22">
<path opacity="0.22" d="M300.677 206.566L200.985 212.714C199.52 212.803 198.08 212.309 196.978 211.338C195.877 210.368 195.205 209.001 195.11 207.536V207.536C195.024 206.077 195.519 204.643 196.487 203.548C197.455 202.453 198.818 201.786 200.277 201.694L299.979 195.535C301.439 195.452 302.873 195.949 303.968 196.919C305.062 197.889 305.729 199.253 305.821 200.713V200.713C305.908 202.169 305.417 203.601 304.453 204.698C303.49 205.794 302.133 206.465 300.677 206.566V206.566Z" fill="#319595"/>
</g>
<g opacity="0.22">
<path opacity="0.22" d="M302.028 228.431L244.073 232.007C242.613 232.093 241.177 231.598 240.081 230.63C238.984 229.662 238.315 228.3 238.22 226.84C238.13 225.379 238.624 223.942 239.592 222.845C240.561 221.747 241.925 221.079 243.386 220.987L301.341 217.411C302.802 217.322 304.239 217.816 305.337 218.784C306.434 219.753 307.102 221.117 307.195 222.578C307.281 224.038 306.787 225.473 305.819 226.57C304.851 227.667 303.488 228.336 302.028 228.431Z" fill="#319595"/>
</g>
<g opacity="0.22">
<path opacity="0.22" d="M217.488 233.642L202.326 234.579C200.867 234.665 199.433 234.17 198.338 233.202C197.243 232.234 196.576 230.871 196.483 229.412V229.412C196.397 227.952 196.891 226.517 197.86 225.42C198.828 224.323 200.19 223.654 201.65 223.559L216.812 222.622C218.273 222.538 219.708 223.035 220.805 224.005C221.901 224.975 222.57 226.339 222.665 227.799C222.749 229.259 222.251 230.693 221.281 231.788C220.311 232.883 218.947 233.549 217.488 233.642V233.642Z" fill="#319595"/>
</g>
<g opacity="0.22">
<path opacity="0.22" d="M303.38 250.297L203.677 256.444C202.217 256.531 200.782 256.036 199.685 255.068C198.589 254.1 197.919 252.737 197.824 251.278C197.741 249.816 198.238 248.381 199.208 247.285C200.177 246.188 201.541 245.52 203.002 245.424L302.693 239.277C304.155 239.19 305.592 239.686 306.689 240.657C307.786 241.627 308.454 242.993 308.546 244.454C308.633 245.913 308.138 247.347 307.17 248.442C306.201 249.537 304.838 250.204 303.38 250.297V250.297Z" fill="#319595"/>
</g>
<g opacity="0.22">
<path opacity="0.22" d="M266.254 274.538L205.029 278.321C203.568 278.404 202.132 277.907 201.036 276.937C199.94 275.967 199.271 274.604 199.176 273.143V273.143C199.092 271.683 199.59 270.249 200.56 269.154C201.53 268.06 202.894 267.393 204.353 267.301L265.578 263.518C267.039 263.435 268.473 263.932 269.567 264.902C270.662 265.872 271.328 267.236 271.421 268.696V268.696C271.51 270.156 271.016 271.591 270.047 272.687C269.079 273.783 267.714 274.449 266.254 274.538V274.538Z" fill="#319595"/>
</g>
<g opacity="0.22">
<path opacity="0.22" d="M304.72 272.173L288.37 273.176C286.911 273.262 285.477 272.767 284.382 271.799C283.287 270.831 282.621 269.468 282.528 268.009V268.009C282.439 266.548 282.932 265.111 283.901 264.014C284.869 262.917 286.234 262.248 287.695 262.156L304.045 261.153C305.506 261.064 306.942 261.557 308.04 262.526C309.137 263.495 309.805 264.859 309.898 266.32C309.982 267.781 309.484 269.216 308.515 270.313C307.545 271.409 306.181 272.078 304.72 272.173Z" fill="#319595"/>
</g>
<g opacity="0.22">
<path opacity="0.22" d="M306.072 294.038L206.381 300.186C204.92 300.273 203.485 299.778 202.389 298.81C201.292 297.842 200.623 296.479 200.527 295.019V295.019C200.441 293.559 200.936 292.124 201.904 291.027C202.872 289.931 204.234 289.261 205.694 289.166L305.396 283.018C306.855 282.932 308.289 283.427 309.384 284.395C310.479 285.364 311.146 286.726 311.239 288.185C311.328 289.646 310.835 291.083 309.866 292.18C308.897 293.278 307.533 293.946 306.072 294.038Z" fill="#319595"/>
</g>
<path opacity="0.22" d="M280.206 135.411L281.831 161.702C281.932 163.359 282.359 164.981 283.087 166.473C283.815 167.966 284.83 169.3 286.074 170.401C287.318 171.501 288.767 172.345 290.337 172.886C291.908 173.426 293.569 173.652 295.227 173.55L321.55 171.926L280.206 135.411Z" fill="#319595"/>
<path opacity="0.5" d="M249.446 200.996C249.43 199.736 249.161 198.492 248.656 197.338C248.151 196.184 247.419 195.143 246.505 194.276C245.59 193.409 244.511 192.734 243.332 192.292C242.152 191.849 240.895 191.647 239.636 191.698H152.327C145.711 191.698 139.247 197.072 138.005 203.688L103.55 380.214C102.264 386.83 106.58 392.204 113.196 392.204H390.056C396.673 392.204 403.082 386.841 404.379 380.214L432.795 234.699C434.082 228.072 429.765 222.709 423.149 222.709H272.5C259.42 222.709 249.893 213.705 249.446 200.996Z" fill="#319595"/>
</svg>
