<svg width="408" height="294" viewBox="0 0 408 294" fill="none" xmlns="http://www.w3.org/2000/svg">
<path d="M217.68 256.841H225.01V236H210L217.68 256.841Z" fill="#434343"/>
<path d="M407.21 256.641H0V256.844H407.21V256.641Z" fill="#E0E0E0"/>
<path d="M320.213 262.83H306.482V263.034H320.213V262.83Z" fill="#E0E0E0"/>
<path d="M365.316 262.733H329.025V262.936H365.316V262.733Z" fill="#E0E0E0"/>
<path d="M261.209 264.101H216.033V264.304H261.209V264.101Z" fill="#E0E0E0"/>
<path d="M211.342 264.101H194.467V264.304H211.342V264.101Z" fill="#E0E0E0"/>
<path d="M123.433 262.529H116.022V262.733H123.433V262.529Z" fill="#E0E0E0"/>
<path d="M140.202 262.529H127.953V262.733H140.202V262.529Z" fill="#E0E0E0"/>
<path d="M108.684 266.202H54.4763V266.406H108.684V266.202Z" fill="#E0E0E0"/>
<path d="M258.814 157.396H220.243V256.641H258.814V157.396Z" fill="#434343"/>
<path d="M114.662 157.396H76.0911V256.641H114.662V157.396Z" fill="#707070"/>
<path d="M251.484 256.641H258.814V235.8H243.804L251.484 256.641Z" fill="#B0B0B0"/>
<path d="M115.599 256.641H108.269V235.8H123.279L115.599 256.641Z" fill="#B0B0B0"/>
<path d="M258.806 157.396H108.269V243.854H258.806V157.396Z" fill="#707070"/>
<path d="M185.997 163.675V217.801H253.13V163.675H185.997Z" fill="#ACACAC"/>
<path d="M113.953 163.683V217.809H181.086V163.683H113.953Z" fill="#ACACAC"/>
<path d="M253.13 235.8V231.817H185.997V235.8H253.13Z" fill="#ACACAC"/>
<path d="M181.086 235.8V231.817H113.954V235.8H181.086Z" fill="#ACACAC"/>
<path d="M253.122 228.104V224.121H185.989V228.104H253.122Z" fill="#ACACAC"/>
<path d="M181.078 228.112V224.129H113.945V228.112H181.078Z" fill="#ACACAC"/>
<path d="M154.161 169.506H140.894C138.04 169.506 135.215 168.925 132.593 167.798C129.97 166.671 127.605 165.021 125.64 162.95H169.399C167.437 165.02 165.075 166.669 162.455 167.796C159.835 168.923 157.013 169.505 154.161 169.506V169.506Z" fill="#F0F0F0"/>
<path d="M226.881 169.506H213.606C210.751 169.507 207.926 168.926 205.304 167.799C202.681 166.672 200.315 165.022 198.352 162.95H242.135C240.171 165.022 237.806 166.672 235.183 167.799C232.561 168.926 229.736 169.507 226.881 169.506V169.506Z" fill="#F0F0F0"/>
<path d="M257.984 5.46582H55.6655V121.032H257.984V5.46582Z" fill="#E0E0E0" fill-opacity="0.5"/>
<path d="M269.174 1.89868H48.8652C48.5908 1.89868 48.3278 2.00765 48.1338 2.20162C47.9398 2.39559 47.8308 2.65867 47.8308 2.93299V2.93299C47.8298 3.0695 47.8557 3.20488 47.9072 3.33131C47.9587 3.45774 48.0347 3.57273 48.1309 3.66964C48.227 3.76654 48.3414 3.84346 48.4675 3.89594C48.5935 3.94843 48.7286 3.97546 48.8652 3.97545H269.174C269.31 3.97546 269.445 3.94843 269.571 3.89594C269.697 3.84346 269.812 3.76654 269.908 3.66964C270.004 3.57273 270.08 3.45774 270.132 3.33131C270.183 3.20488 270.209 3.0695 270.208 2.93299V2.93299C270.208 2.65867 270.099 2.39559 269.905 2.20162C269.711 2.00765 269.448 1.89868 269.174 1.89868V1.89868Z" fill="#707070"/>
<path d="M262.414 5.46582H57.7341V121.032H262.414V5.46582Z" fill="#ABABAB"/>
<path d="M257.984 121.032H55.6655V129.266H257.984V121.032Z" fill="#707070"/>
<path d="M269.793 121.032H65.1128V129.266H269.793V121.032Z" fill="#ABABAB"/>
<path d="M256.2 114.826V11.6717L63.9319 11.6717V114.826L256.2 114.826Z" fill="#F5F5F5" fill-opacity="0.4"/>
<path d="M159.089 114.826L195.501 11.6717H212.686L176.273 114.826H159.089Z" fill="#FAFAFA"/>
<path d="M179.97 114.826L216.383 11.6717H223.077L186.673 114.826H179.97Z" fill="#FAFAFA"/>
<path d="M256.2 114.826V11.6717H255.41V114.826H256.2Z" fill="#E0E0E0"/>
<path d="M64.0052 0.0418091H53.3281V99.5801H64.0052V0.0418091Z" fill="#BCBCBC"/>
<path d="M68.1668 0.0418091H59.8516V99.5801H68.1668V0.0418091Z" fill="#DEDEDE"/>
<path d="M74.6824 0.0418091H64.0054V99.5801H74.6824V0.0418091Z" fill="#BCBCBC"/>
<path d="M78.844 0.0418091H70.5288V99.5801H78.844V0.0418091Z" fill="#E0E0E0"/>
<path d="M78.844 0.0418091H70.5288V99.5801H78.844V0.0418091Z" fill="#DEDEDE"/>
<path d="M85.677 0H75V99.5383H85.677V0Z" fill="#BCBCBC"/>
<path d="M248.226 0.0418091H242.077V99.5801H248.226V0.0418091Z" fill="#DEDEDE"/>
<path d="M250.636 0.0418091H245.839V99.5801H250.636V0.0418091Z" fill="#BCBCBC"/>
<path d="M242.797 0H238V99.5383H242.797V0Z" fill="#BCBCBC"/>
<path d="M256.383 0.0418091H250.234V99.5801H256.383V0.0418091Z" fill="#DEDEDE"/>
<path d="M258.785 0.0418091H253.988V99.5801H258.785V0.0418091Z" fill="#BCBCBC"/>
<path d="M264.531 0.0418091H258.383V99.5801H264.531V0.0418091Z" fill="#DEDEDE"/>
<path d="M88.3152 0H80V99.5383H88.3152V0Z" fill="#DEDEDE"/>
<path d="M320.498 43.2224H306.849V80.4657H320.498V43.2224Z" fill="#E6E6E6" fill-opacity="0.5"/>
<path d="M301.661 86.6797L298.501 95.2881H301.661L320.987 86.6797H301.661Z" fill="#F0F0F0"/>
<path d="M298.501 86.6797V95.2881L317.835 86.6797H298.501Z" fill="#E0E0E0"/>
<path d="M335.16 87L332 95.6084H335.16L354.486 87H335.16Z" fill="#F0F0F0" fill-opacity="0.5"/>
<path d="M332 87V95.6084L351.334 87H332Z" fill="#E0E0E0" fill-opacity="0.5"/>
<path d="M284.322 87.0788H305.342V80.5227H284.322V87.0788Z" fill="#E0E0E0"/>
<path d="M365.316 80.5226H305.334V87.0787H365.316V80.5226Z" fill="#F0F0F0" fill-opacity="0.8"/>
<path d="M343.237 80.4656H310.017L305.904 35.3387H339.124L343.237 80.4656Z" fill="#E0E0E0" fill-opacity="0.5"/>
<path d="M344.955 80.4656H311.735L307.631 35.3387H340.851L344.955 80.4656Z" fill="#F0F0F0" fill-opacity="0.5"/>
<path d="M316.28 75.4733L313.079 40.3311H336.306L339.507 75.4733H316.28Z" fill="#FAFAFA" fill-opacity="0.5"/>
<path d="M128.198 142.907C128.198 142.907 113.872 118.222 133.744 98.5702C133.744 98.5702 138.932 101.95 138.85 106.494C138.769 111.039 133.296 112.195 134.477 115.974C135.658 119.753 140.821 123.491 137.425 126.627C134.029 129.762 137.971 132.548 137.743 136.4C137.515 140.252 128.198 142.907 128.198 142.907Z" fill="#E0E0E0"/>
<path d="M129.281 145.163C129.281 145.163 135.088 117.22 110.036 104.833C110.036 104.833 106.184 109.679 107.691 113.963C109.197 118.247 114.752 117.62 114.833 121.586C114.914 125.552 111.184 130.715 115.387 132.621C119.589 134.527 116.739 138.42 118.172 141.987C119.606 145.554 129.281 145.163 129.281 145.163Z" fill="#E0E0E0"/>
<path d="M107.341 138.974C107.341 138.974 107.813 157.396 126.072 157.396C144.331 157.396 144.804 138.974 144.804 138.974H107.341Z" fill="#F0F0F0"/>
<path d="M322.795 256.641H324.66L329.97 230.449L330.907 225.864L336.697 197.359H358.923L370.968 256.641H372.833L360.56 196.227C360.516 196.022 360.404 195.837 360.241 195.705C360.077 195.573 359.874 195.502 359.664 195.502H335.956C335.747 195.5 335.543 195.572 335.381 195.704C335.219 195.837 335.108 196.022 335.068 196.227L329.978 221.295L329.025 225.88L322.795 256.641Z" fill="#C3D3CD" fill-opacity="0.8"/>
<path d="M287.115 256.641H288.98L301.026 197.327H323.251L329.025 225.88L329.954 230.449L335.272 256.641H337.169L330.923 225.864L329.978 221.295L324.888 196.227C324.845 196.022 324.732 195.838 324.569 195.705C324.406 195.573 324.202 195.502 323.992 195.502H300.284C300.074 195.502 299.871 195.573 299.707 195.705C299.544 195.838 299.432 196.022 299.389 196.227L287.115 256.641Z" fill="#C3D3CD" fill-opacity="0.8"/>
<path d="M341.901 196.415H301.066C297.319 196.413 293.721 194.943 291.044 192.32C288.368 189.697 286.826 186.129 286.749 182.382L285.226 120.307C285.206 118.926 285.459 117.555 285.973 116.273C286.487 114.991 287.25 113.823 288.218 112.839C289.186 111.854 290.34 111.071 291.613 110.535C292.886 110 294.253 109.723 295.634 109.72H321.231C323.794 109.719 326.268 110.662 328.18 112.368C330.092 114.075 331.309 116.425 331.599 118.971L341.901 196.415Z" fill="#737373"/>
<path d="M319.627 188.588H359.591C361.074 188.588 362.498 189.177 363.547 190.227C364.596 191.276 365.186 192.699 365.186 194.183V194.379C365.186 194.919 364.971 195.436 364.589 195.818C364.207 196.2 363.69 196.415 363.15 196.415H319.627V188.588Z" fill="#737373"/>
<path d="M203.605 293.42C290.815 293.42 361.513 289.292 361.513 284.201C361.513 279.109 290.815 274.982 203.605 274.982C116.395 274.982 45.6973 279.109 45.6973 284.201C45.6973 289.292 116.395 293.42 203.605 293.42Z" fill="#F5F5F5" fill-opacity="0.5"/>
<path d="M151.93 49.6806C151.933 48.1637 151.81 46.6491 151.563 45.1525C150.472 38.5373 147.083 32.5186 141.994 28.1543C136.904 23.7901 130.439 21.3595 123.735 21.29H123.49C118.993 21.2927 114.56 22.3649 110.558 24.4182C106.556 26.4715 103.1 29.447 100.475 33.0991C100.043 33.6936 99.6605 34.3044 99.2696 34.9152C99.2377 34.9555 99.2104 34.9992 99.1881 35.0455C96.5146 39.4672 95.1061 44.5379 95.116 49.7051V49.7621C95.1328 55.7675 97.0524 61.6131 100.599 66.4593C104.146 71.3056 109.137 74.9032 114.856 76.7353C120.575 78.5675 126.728 78.5401 132.431 76.6569C138.133 74.7737 143.092 71.1318 146.595 66.2541C147.019 65.6595 147.41 65.0569 147.793 64.4379C147.824 64.3976 147.852 64.3539 147.874 64.3076C150.544 59.8972 151.948 54.8363 151.93 49.6806V49.6806ZM96.3295 49.0372C96.4236 44.3872 97.7229 39.8412 100.1 35.8436H108.986C107.628 40.1116 106.917 44.5587 106.876 49.0372H96.3295ZM110.232 35.8436H122.904V49.0372H108.098C108.125 44.5557 108.845 40.1052 110.232 35.8436V35.8436ZM124.126 34.622V22.4709C125.887 22.6306 127.574 23.2575 129.012 24.287C132.034 26.3557 134.566 29.988 136.342 34.622H124.126ZM136.782 35.8436C137.789 38.8945 138.445 42.0505 138.736 45.2502C138.858 46.5207 138.915 47.783 138.932 49.0372H124.126V35.8436H136.782ZM121.112 22.8129C121.697 22.6468 122.298 22.5431 122.904 22.5035V34.6465H110.688C112.968 28.5057 116.666 24.0427 121.112 22.7885V22.8129ZM122.904 50.2833V63.4769H110.256C109.248 60.4185 108.598 57.2538 108.318 54.0459C108.204 52.7754 108.139 51.5131 108.122 50.2589L122.904 50.2833ZM122.904 64.6985V76.8496C121.143 76.6888 119.456 76.062 118.017 75.0335C115.004 72.9649 112.471 69.3326 110.688 64.6985H122.904ZM125.917 76.532C125.333 76.6989 124.732 76.8026 124.126 76.8415V64.6741H136.342C134.062 70.7904 130.364 75.2615 125.917 76.5076V76.532ZM124.126 63.5013V50.267H138.932C138.909 54.7489 138.189 59.1999 136.798 63.4606L124.126 63.5013ZM140.153 50.267H150.741C150.642 54.9164 149.343 59.4613 146.97 63.4606H138.044C139.402 59.1927 140.113 54.7455 140.153 50.267V50.267ZM150.741 49.0454H140.153C140.153 47.7586 140.072 46.4555 139.95 45.1443C139.672 41.9876 139.046 38.8713 138.085 35.8518H146.954C148.668 38.7618 149.825 41.9655 150.366 45.2991C150.56 46.5365 150.674 47.7851 150.708 49.0372L150.741 49.0454ZM139.445 27.6017C142.107 29.5192 144.402 31.8999 146.221 34.6302H137.637C135.813 29.5889 133.068 25.5983 129.704 23.2853L129.444 23.1143C133.035 23.9185 136.426 25.4423 139.412 27.5936L139.445 27.6017ZM117.561 23.1306C114.133 25.3865 111.315 29.4912 109.417 34.6302H100.866L101.46 33.7587C105.328 28.3597 111.048 24.5735 117.529 23.1224L117.561 23.1306ZM96.3865 50.267H106.933C106.933 51.5538 107.015 52.8569 107.137 54.1681C107.419 57.3242 108.044 60.4401 109.002 63.4606H100.084C98.3666 60.5522 97.2092 57.3479 96.6716 54.0133C96.4688 52.7743 96.3545 51.5223 96.3295 50.267H96.3865ZM100.898 64.6822H109.417C111.242 69.7235 113.986 73.7141 117.35 76.0271L117.618 76.1981C110.775 74.6439 104.79 70.5216 100.898 64.6822V64.6822ZM129.493 76.1737C132.913 73.9259 135.731 69.8131 137.637 64.6741H146.172C145.976 64.9673 145.781 65.2605 145.577 65.5455C141.707 70.9471 135.98 74.7313 129.493 76.1737Z" fill="#319595"/>
<path opacity="0.8" d="M151.93 49.6806C151.933 48.1637 151.81 46.6491 151.563 45.1525C150.472 38.5373 147.083 32.5186 141.994 28.1543C136.904 23.7901 130.439 21.3595 123.735 21.29H123.49C118.993 21.2927 114.56 22.3649 110.558 24.4182C106.556 26.4715 103.1 29.447 100.475 33.0991C100.043 33.6936 99.6605 34.3044 99.2696 34.9152C99.2377 34.9555 99.2104 34.9992 99.1881 35.0455C96.5146 39.4672 95.1061 44.5379 95.116 49.7051V49.7621C95.1328 55.7675 97.0524 61.6131 100.599 66.4593C104.146 71.3056 109.137 74.9032 114.856 76.7353C120.575 78.5675 126.728 78.5401 132.431 76.6569C138.133 74.7737 143.092 71.1318 146.595 66.2541C147.019 65.6595 147.41 65.0569 147.793 64.4379C147.824 64.3976 147.852 64.3539 147.874 64.3076C150.544 59.8972 151.948 54.8363 151.93 49.6806V49.6806ZM96.3295 49.0372C96.4236 44.3872 97.7229 39.8412 100.1 35.8436H108.986C107.628 40.1116 106.917 44.5587 106.876 49.0372H96.3295ZM110.232 35.8436H122.904V49.0372H108.098C108.125 44.5557 108.845 40.1052 110.232 35.8436V35.8436ZM124.126 34.622V22.4709C125.887 22.6306 127.574 23.2575 129.012 24.287C132.034 26.3557 134.566 29.988 136.342 34.622H124.126ZM136.782 35.8436C137.789 38.8945 138.445 42.0505 138.736 45.2502C138.858 46.5207 138.915 47.783 138.932 49.0372H124.126V35.8436H136.782ZM121.112 22.8129C121.697 22.6468 122.298 22.5431 122.904 22.5035V34.6465H110.688C112.968 28.5057 116.666 24.0427 121.112 22.7885V22.8129ZM122.904 50.2833V63.4769H110.256C109.248 60.4185 108.598 57.2538 108.318 54.0459C108.204 52.7754 108.139 51.5131 108.122 50.2589L122.904 50.2833ZM122.904 64.6985V76.8496C121.143 76.6888 119.456 76.062 118.017 75.0335C115.004 72.9649 112.471 69.3326 110.688 64.6985H122.904ZM125.917 76.532C125.333 76.6989 124.732 76.8026 124.126 76.8415V64.6741H136.342C134.062 70.7904 130.364 75.2615 125.917 76.5076V76.532ZM124.126 63.5013V50.267H138.932C138.909 54.7489 138.189 59.1999 136.798 63.4606L124.126 63.5013ZM140.153 50.267H150.741C150.642 54.9164 149.343 59.4613 146.97 63.4606H138.044C139.402 59.1927 140.113 54.7455 140.153 50.267V50.267ZM150.741 49.0454H140.153C140.153 47.7586 140.072 46.4555 139.95 45.1443C139.672 41.9876 139.046 38.8713 138.085 35.8518H146.954C148.668 38.7618 149.825 41.9655 150.366 45.2991C150.56 46.5365 150.674 47.7851 150.708 49.0372L150.741 49.0454ZM139.445 27.6017C142.107 29.5192 144.402 31.8999 146.221 34.6302H137.637C135.813 29.5889 133.068 25.5983 129.704 23.2853L129.444 23.1143C133.035 23.9185 136.426 25.4423 139.412 27.5936L139.445 27.6017ZM117.561 23.1306C114.133 25.3865 111.315 29.4912 109.417 34.6302H100.866L101.46 33.7587C105.328 28.3597 111.048 24.5735 117.529 23.1224L117.561 23.1306ZM96.3865 50.267H106.933C106.933 51.5538 107.015 52.8569 107.137 54.1681C107.419 57.3242 108.044 60.4401 109.002 63.4606H100.084C98.3666 60.5522 97.2092 57.3479 96.6716 54.0133C96.4688 52.7743 96.3545 51.5223 96.3295 50.267H96.3865ZM100.898 64.6822H109.417C111.242 69.7235 113.986 73.7141 117.35 76.0271L117.618 76.1981C110.775 74.6439 104.79 70.5216 100.898 64.6822V64.6822ZM129.493 76.1737C132.913 73.9259 135.731 69.8131 137.637 64.6741H146.172C145.976 64.9673 145.781 65.2605 145.577 65.5455C141.707 70.9471 135.98 74.7313 129.493 76.1737Z" fill="#FAFAFA"/>
<path d="M337.406 63.2162H81.3525V125.259H337.406V63.2162Z" fill="#319595"/>
<path opacity="0.6" d="M337.406 63.2162H81.3525V125.259H337.406V63.2162Z" fill="#FAFAFA"/>
<path d="M331.632 68.9905H75.5781V131.033H331.632V68.9905Z" fill="#319595"/>
<path opacity="0.3" d="M331.632 68.9905H75.5781V131.033H331.632V68.9905Z" fill="black"/>
<path d="M325.857 74.7648H69.804V136.807H325.857V74.7648Z" fill="#319595"/>
<path opacity="0.1" d="M325.857 74.7648H69.804V136.807H325.857V74.7648Z" fill="#FAFAFA"/>
<path d="M313.641 124.591V86.981L82.0203 86.981V124.591L313.641 124.591Z" fill="#319595"/>
<path opacity="0.9" d="M313.641 124.591V86.981L82.0203 86.981V124.591L313.641 124.591Z" fill="#FAFAFA"/>
<path d="M274.679 86.981V124.591H276.039V86.981H274.679Z" fill="#319595"/>
<path opacity="0.6" d="M274.679 86.981V124.591H276.039V86.981H274.679Z" fill="#FAFAFA"/>
<path d="M87.7944 92.1688V119.403H89.1545V92.1688H87.7944Z" fill="#319595"/>
<path opacity="0.6" d="M87.7944 92.1688V119.403H89.1545V92.1688H87.7944Z" fill="#FAFAFA"/>
<path d="M293.541 110.534C292.553 110.534 291.58 110.29 290.709 109.823C289.837 109.357 289.094 108.683 288.545 107.862C287.996 107.04 287.659 106.095 287.562 105.112C287.465 104.128 287.613 103.136 287.991 102.223C288.369 101.31 288.967 100.505 289.731 99.8777C290.494 99.2507 291.401 98.8218 292.37 98.6289C293.34 98.436 294.341 98.485 295.287 98.7717C296.233 99.0584 297.093 99.5738 297.792 100.272V100.272C298.633 101.113 299.206 102.184 299.438 103.35C299.671 104.517 299.551 105.726 299.096 106.824C298.641 107.923 297.87 108.862 296.882 109.522C295.893 110.182 294.73 110.535 293.541 110.534V110.534ZM293.541 100.15C292.527 100.151 291.545 100.502 290.761 101.146C289.978 101.79 289.442 102.685 289.244 103.68C289.047 104.674 289.201 105.706 289.68 106.6C290.158 107.494 290.932 108.194 291.869 108.581C292.806 108.969 293.849 109.019 294.819 108.723C295.789 108.428 296.626 107.805 297.188 106.962C297.751 106.118 298.003 105.105 297.902 104.096C297.801 103.087 297.354 102.145 296.636 101.429V101.429C296.234 101.014 295.753 100.684 295.221 100.457C294.69 100.231 294.119 100.112 293.541 100.11V100.15Z" fill="#319595"/>
<path d="M301.335 113.091C301.227 113.091 301.121 113.069 301.021 113.027C300.922 112.985 300.832 112.924 300.757 112.847L296.644 108.734C296.559 108.661 296.49 108.571 296.441 108.47C296.392 108.369 296.364 108.259 296.36 108.147C296.356 108.035 296.375 107.923 296.415 107.818C296.456 107.714 296.519 107.619 296.598 107.54C296.677 107.46 296.772 107.398 296.877 107.357C296.981 107.316 297.093 107.297 297.205 107.302C297.317 107.306 297.427 107.334 297.528 107.382C297.63 107.431 297.719 107.501 297.792 107.586L301.905 111.699C302.057 111.851 302.142 112.058 302.142 112.273C302.142 112.488 302.057 112.694 301.905 112.847C301.755 113 301.55 113.088 301.335 113.091V113.091Z" fill="#319595"/>
<g opacity="0.6">
<path opacity="0.6" d="M293.541 110.534C292.553 110.534 291.58 110.29 290.709 109.823C289.837 109.357 289.094 108.683 288.545 107.862C287.996 107.04 287.659 106.095 287.562 105.112C287.465 104.128 287.613 103.136 287.991 102.223C288.369 101.31 288.967 100.505 289.731 99.8777C290.494 99.2507 291.401 98.8218 292.37 98.6289C293.34 98.436 294.341 98.485 295.287 98.7717C296.233 99.0584 297.093 99.5738 297.792 100.272V100.272C298.633 101.113 299.206 102.184 299.438 103.35C299.671 104.517 299.551 105.726 299.096 106.824C298.641 107.923 297.87 108.862 296.882 109.522C295.893 110.182 294.73 110.535 293.541 110.534V110.534ZM293.541 100.15C292.527 100.151 291.545 100.502 290.761 101.146C289.978 101.79 289.442 102.685 289.244 103.68C289.047 104.674 289.201 105.706 289.68 106.6C290.158 107.494 290.932 108.194 291.869 108.581C292.806 108.969 293.849 109.019 294.819 108.723C295.789 108.428 296.626 107.805 297.188 106.962C297.751 106.118 298.003 105.105 297.902 104.096C297.801 103.087 297.354 102.145 296.636 101.429V101.429C296.234 101.014 295.753 100.684 295.221 100.457C294.69 100.231 294.119 100.112 293.541 100.11V100.15Z" fill="#FAFAFA"/>
<path opacity="0.6" d="M301.335 113.091C301.227 113.091 301.121 113.069 301.021 113.027C300.922 112.985 300.832 112.924 300.757 112.847L296.644 108.734C296.559 108.661 296.49 108.571 296.441 108.47C296.392 108.369 296.364 108.259 296.36 108.147C296.356 108.035 296.375 107.923 296.415 107.818C296.456 107.714 296.519 107.619 296.598 107.54C296.677 107.46 296.772 107.398 296.877 107.357C296.981 107.316 297.093 107.297 297.205 107.302C297.317 107.306 297.427 107.334 297.528 107.382C297.63 107.431 297.719 107.501 297.792 107.586L301.905 111.699C302.057 111.851 302.142 112.058 302.142 112.273C302.142 112.488 302.057 112.694 301.905 112.847C301.755 113 301.55 113.088 301.335 113.091V113.091Z" fill="#FAFAFA"/>
</g>
<path d="M235.291 25.7123H209.686V26.3475H235.291V25.7123Z" fill="#319595"/>
<path d="M235.291 28.408H209.686V29.0432H235.291V28.408Z" fill="#319595"/>
<path d="M235.291 31.1119H209.686V31.7472H235.291V31.1119Z" fill="#319595"/>
<path d="M235.291 33.8076H209.686V34.4429H235.291V33.8076Z" fill="#319595"/>
<path d="M235.291 36.5034H209.686V37.1386H235.291V36.5034Z" fill="#319595"/>
<path d="M226.381 39.2072H209.686V39.8425H226.381V39.2072Z" fill="#319595"/>
<g opacity="0.5">
<path opacity="0.5" d="M235.291 25.7123H209.686V26.3475H235.291V25.7123Z" fill="#FAFAFA"/>
<path opacity="0.5" d="M235.291 28.4081H209.686V29.0433H235.291V28.4081Z" fill="#FAFAFA"/>
<path opacity="0.5" d="M235.291 31.1119H209.686V31.7472H235.291V31.1119Z" fill="#FAFAFA"/>
<path opacity="0.5" d="M235.291 33.8077H209.686V34.4429H235.291V33.8077Z" fill="#FAFAFA"/>
<path opacity="0.5" d="M235.291 36.5034H209.686V37.1386H235.291V36.5034Z" fill="#FAFAFA"/>
<path opacity="0.5" d="M226.381 39.2072H209.686V39.8425H226.381V39.2072Z" fill="#FAFAFA"/>
</g>
<path d="M84.1702 142.166H56.8872V142.573H84.1702V142.166Z" fill="#319595"/>
<path d="M84.1702 143.893H56.8872V144.3H84.1702V143.893Z" fill="#319595"/>
<path d="M84.1702 145.619H56.8872V146.026H84.1702V145.619Z" fill="#319595"/>
<path d="M84.1702 147.346H56.8872V147.753H84.1702V147.346Z" fill="#319595"/>
<path d="M84.1702 149.072H56.8872V149.48H84.1702V149.072Z" fill="#319595"/>
<path d="M74.0389 150.807H56.8872V151.214H74.0389V150.807Z" fill="#319595"/>
<g opacity="0.4">
<path opacity="0.4" d="M84.1702 142.166H56.8872V142.573H84.1702V142.166Z" fill="#FAFAFA"/>
<path opacity="0.4" d="M84.1702 143.893H56.8872V144.3H84.1702V143.893Z" fill="#FAFAFA"/>
<path opacity="0.4" d="M84.1702 145.619H56.8872V146.026H84.1702V145.619Z" fill="#FAFAFA"/>
<path opacity="0.4" d="M84.1702 147.346H56.8872V147.753H84.1702V147.346Z" fill="#FAFAFA"/>
<path opacity="0.4" d="M84.1702 149.072H56.8872V149.48H84.1702V149.072Z" fill="#FAFAFA"/>
<path opacity="0.4" d="M74.0389 150.807H56.8872V151.214H74.0389V150.807Z" fill="#FAFAFA"/>
</g>
<path d="M173.838 29.7111C172.473 29.7111 171.163 30.2533 170.198 31.2186C169.233 32.1839 168.691 33.4931 168.691 34.8582V51.8388C168.691 53.2039 169.233 54.5131 170.198 55.4784C171.163 56.4437 172.473 56.986 173.838 56.986V56.986C175.203 56.986 176.512 56.4437 177.477 55.4784C178.443 54.5131 178.985 53.2039 178.985 51.8388V34.8582C178.985 33.4931 178.443 32.1839 177.477 31.2186C176.512 30.2533 175.203 29.7111 173.838 29.7111V29.7111Z" fill="#319595"/>
<path opacity="0.2" d="M173.838 29.7111C172.473 29.7111 171.163 30.2533 170.198 31.2186C169.233 32.1839 168.691 33.4931 168.691 34.8582V51.8388C168.691 53.2039 169.233 54.5131 170.198 55.4784C171.163 56.4437 172.473 56.986 173.838 56.986V56.986C175.203 56.986 176.512 56.4437 177.477 55.4784C178.443 54.5131 178.985 53.2039 178.985 51.8388V34.8582C178.985 33.4931 178.443 32.1839 177.477 31.2186C176.512 30.2533 175.203 29.7111 173.838 29.7111V29.7111Z" fill="#FAFAFA"/>
<path d="M186.738 19.5878C185.377 19.5943 184.074 20.1394 183.114 21.104C182.154 22.0686 181.615 23.3741 181.615 24.735V51.8388C181.615 53.2039 182.158 54.5131 183.123 55.4784C184.088 56.4437 185.398 56.986 186.763 56.986V56.986C188.128 56.986 189.437 56.4437 190.402 55.4784C191.367 54.5131 191.91 53.2039 191.91 51.8388V24.735C191.91 24.057 191.776 23.3857 191.516 22.7596C191.255 22.1335 190.874 21.565 190.394 21.0867C189.913 20.6084 189.343 20.2298 188.715 19.9726C188.088 19.7154 187.416 19.5846 186.738 19.5878Z" fill="#319595"/>
<path opacity="0.3" d="M186.738 19.5878C185.377 19.5943 184.074 20.1394 183.114 21.104C182.154 22.0686 181.615 23.3741 181.615 24.735V51.8388C181.615 53.2039 182.158 54.5131 183.123 55.4784C184.088 56.4437 185.398 56.986 186.763 56.986V56.986C188.128 56.986 189.437 56.4437 190.402 55.4784C191.367 54.5131 191.91 53.2039 191.91 51.8388V24.735C191.91 24.057 191.776 23.3857 191.516 22.7596C191.255 22.1335 190.874 21.565 190.394 21.0867C189.913 20.6084 189.343 20.2298 188.715 19.9726C188.088 19.7154 187.416 19.5846 186.738 19.5878Z" fill="black"/>
<path d="M199.631 39.8343C198.265 39.8343 196.956 40.3766 195.991 41.3419C195.026 42.3071 194.483 43.6163 194.483 44.9814V51.8388C194.483 53.2039 195.026 54.5131 195.991 55.4784C196.956 56.4437 198.265 56.986 199.631 56.986V56.986C200.307 56.987 200.977 56.8547 201.603 56.5965C202.228 56.3383 202.797 55.9593 203.275 55.4813C203.754 55.0032 204.134 54.4354 204.393 53.8104C204.652 53.1854 204.786 52.5154 204.786 51.8388V44.9814C204.786 44.3048 204.652 43.6348 204.393 43.0098C204.134 42.3848 203.754 41.817 203.275 41.339C202.797 40.8609 202.228 40.4819 201.603 40.2238C200.977 39.9656 200.307 39.8332 199.631 39.8343V39.8343Z" fill="#319595"/>
<path opacity="0.6" d="M199.631 39.8343C198.265 39.8343 196.956 40.3766 195.991 41.3419C195.026 42.3071 194.483 43.6163 194.483 44.9814V51.8388C194.483 53.2039 195.026 54.5131 195.991 55.4784C196.956 56.4437 198.265 56.986 199.631 56.986V56.986C200.307 56.987 200.977 56.8547 201.603 56.5965C202.228 56.3383 202.797 55.9593 203.275 55.4813C203.754 55.0032 204.134 54.4354 204.393 53.8104C204.652 53.1854 204.786 52.5154 204.786 51.8388V44.9814C204.786 44.3048 204.652 43.6348 204.393 43.0098C204.134 42.3848 203.754 41.817 203.275 41.339C202.797 40.8609 202.228 40.4819 201.603 40.2238C200.977 39.9656 200.307 39.8332 199.631 39.8343V39.8343Z" fill="#FAFAFA"/>
<path d="M308.347 156.247H329.156L293.631 119.403L308.347 156.247Z" fill="#319595"/>
<g opacity="0.1">
<path opacity="0.1" d="M308.347 156.247H329.156L293.631 119.403L308.347 156.247Z" fill="black"/>
</g>
<g style="mix-blend-mode:multiply">
<path d="M288.345 136.799L293.631 119.403L296.628 136.799H288.345Z" fill="#319595"/>
</g>
<path d="M293.631 119.403V170.956L297.312 167.283L308.347 156.247L293.631 119.403Z" fill="#319595"/>
<path opacity="0.3" d="M293.631 119.403V170.956L297.312 167.283L308.347 156.247L293.631 119.403Z" fill="#FAFAFA"/>
<path d="M330.426 8.82123H284.819C282.507 8.8298 280.293 9.75125 278.658 11.3849C277.022 13.0186 276.099 15.2322 276.088 17.5437V41.0967C276.099 43.4067 277.021 45.6191 278.655 47.2525C280.288 48.886 282.501 49.8084 284.811 49.8191H318.275L318.031 58.0529L326.476 49.8191H330.41C332.721 49.8105 334.936 48.8891 336.571 47.2554C338.206 45.6217 339.13 43.4081 339.14 41.0967V17.5437C339.13 15.235 338.208 13.0239 336.577 11.3907C334.945 9.75742 332.735 8.83408 330.426 8.82123V8.82123ZM283.793 18.8549C283.793 18.2069 284.05 17.5854 284.508 17.1272C284.966 16.669 285.588 16.4116 286.236 16.4116H296.734C297.382 16.4116 298.003 16.669 298.461 17.1272C298.919 17.5854 299.177 18.2069 299.177 18.8549C299.177 19.5029 298.919 20.1243 298.461 20.5825C298.003 21.0407 297.382 21.2981 296.734 21.2981H286.228C285.581 21.296 284.962 21.0376 284.505 20.5796C284.049 20.1217 283.793 19.5015 283.793 18.8549V18.8549ZM327.836 41.6586H309.691C309.34 41.7201 308.979 41.704 308.635 41.6115C308.291 41.5189 307.971 41.3521 307.698 41.1228C307.425 40.8934 307.205 40.6071 307.055 40.284C306.904 39.9608 306.826 39.6085 306.826 39.252C306.826 38.8955 306.904 38.5432 307.055 38.22C307.205 37.8969 307.425 37.6106 307.698 37.3812C307.971 37.1519 308.291 36.9851 308.635 36.8925C308.979 36.8 309.34 36.7839 309.691 36.8454H327.836C328.188 36.7839 328.548 36.8 328.892 36.8925C329.237 36.9851 329.556 37.1519 329.829 37.3812C330.102 37.6106 330.322 37.8969 330.473 38.22C330.623 38.5432 330.701 38.8955 330.701 39.252C330.701 39.6085 330.623 39.9608 330.473 40.284C330.322 40.6071 330.102 40.8934 329.829 41.1228C329.556 41.3521 329.237 41.5189 328.892 41.6115C328.548 41.704 328.188 41.7201 327.836 41.6586V41.6586ZM327.836 31.4702H288.671C288.32 31.5317 287.959 31.5157 287.615 31.4231C287.271 31.3305 286.951 31.1637 286.678 30.9344C286.405 30.7051 286.185 30.4187 286.035 30.0956C285.884 29.7724 285.806 29.4202 285.806 29.0636C285.806 28.7071 285.884 28.3548 286.035 28.0317C286.185 27.7085 286.405 27.4222 286.678 27.1928C286.951 26.9635 287.271 26.7967 287.615 26.7041C287.959 26.6116 288.32 26.5955 288.671 26.657H327.836C328.188 26.5955 328.548 26.6116 328.892 26.7041C329.237 26.7967 329.556 26.9635 329.829 27.1928C330.102 27.4222 330.322 27.7085 330.473 28.0317C330.623 28.3548 330.701 28.7071 330.701 29.0636C330.701 29.4202 330.623 29.7724 330.473 30.0956C330.322 30.4187 330.102 30.7051 329.829 30.9344C329.556 31.1637 329.237 31.3305 328.892 31.4231C328.548 31.5157 328.188 31.5317 327.836 31.4702V31.4702ZM327.836 21.2818H304.65C304.002 21.2818 303.38 21.0244 302.922 20.5662C302.464 20.108 302.207 19.4866 302.207 18.8386C302.207 18.1906 302.464 17.5691 302.922 17.1109C303.38 16.6527 304.002 16.3953 304.65 16.3953H327.836C328.484 16.3953 329.106 16.6527 329.564 17.1109C330.022 17.5691 330.28 18.1906 330.28 18.8386C330.28 19.4866 330.022 20.108 329.564 20.5662C329.106 21.0244 328.484 21.2818 327.836 21.2818Z" fill="#319595"/>
<path d="M259.099 83.4791C257.152 78.1284 254.178 73.2096 250.344 68.9988H185.59C181.757 73.2096 178.783 78.1284 176.835 83.4791L185.794 128.077C192.647 135.506 201.861 140.334 211.871 141.74C221.88 143.146 232.068 141.043 240.703 135.789C249.338 130.536 255.888 122.454 259.24 112.919C262.592 103.383 262.539 92.9806 259.091 83.4791H259.099Z" fill="#319595"/>
<path opacity="0.1" d="M259.099 83.4791C257.152 78.1284 254.178 73.2096 250.344 68.9988H185.59C181.757 73.2096 178.783 78.1284 176.835 83.4791L185.794 128.077C192.647 135.506 201.861 140.334 211.871 141.74C221.88 143.146 232.068 141.043 240.703 135.789C249.338 130.536 255.888 122.454 259.24 112.919C262.592 103.383 262.539 92.9806 259.091 83.4791H259.099Z" fill="#FAFAFA"/>
<path d="M261.681 100.443C261.219 110.727 257.134 120.515 250.149 128.077H185.81C180.378 122.175 176.671 114.895 175.091 107.031C173.511 99.1674 174.12 91.0208 176.851 83.4791H259.107C261.083 88.9069 261.958 94.6739 261.681 100.443V100.443Z" fill="#319595"/>
<path opacity="0.9" d="M261.681 100.443C261.219 110.727 257.134 120.515 250.149 128.077H185.81C180.378 122.175 176.671 114.895 175.091 107.031C173.511 99.1674 174.12 91.0208 176.851 83.4791H259.107C261.083 88.9069 261.958 94.6739 261.681 100.443V100.443Z" fill="#FAFAFA"/>
<path opacity="0.3" d="M261.681 100.443C261.175 111.265 256.663 121.512 249.023 129.192C241.384 136.873 231.161 141.439 220.343 142.004C209.524 142.568 198.882 139.091 190.485 132.246C182.087 125.402 176.534 115.681 174.904 104.971C173.274 94.261 175.684 83.3275 181.665 74.2953C187.647 65.263 196.772 58.7769 207.269 56.0975C217.766 53.4181 228.884 54.7367 238.463 59.7971C248.041 64.8575 255.397 73.2982 259.099 83.4791C261.075 88.9071 261.953 94.6735 261.681 100.443V100.443Z" fill="white"/>
<path opacity="0.4" d="M242.632 62.2879L179.71 119.672C179.395 119.091 179.085 118.505 178.781 117.913C176.857 114.061 175.521 109.944 174.815 105.696V105.696L229.161 56.1309C233.97 57.3983 238.527 59.4808 242.632 62.2879Z" fill="white"/>
<path opacity="0.4" d="M259.466 84.5297L200.347 138.477C194.215 135.771 188.787 131.692 184.482 126.554L249.082 67.6387C253.79 72.4007 257.342 78.1793 259.466 84.5297V84.5297Z" fill="white"/>
<path d="M261.665 73.1929C256.674 64.5392 249.229 57.5603 240.27 53.1392C231.312 48.7181 221.244 47.0536 211.34 48.3562C201.435 49.6588 192.14 53.87 184.629 60.457C177.119 67.044 171.731 75.7107 169.147 85.3606C166.564 95.0105 166.901 105.21 170.116 114.668C173.33 124.127 179.278 132.419 187.207 138.496C195.136 144.573 204.689 148.161 214.658 148.807C224.627 149.453 234.563 147.128 243.21 142.125C254.791 135.425 263.24 124.402 266.7 111.478C270.16 98.5529 268.349 84.7834 261.665 73.1929V73.1929ZM183.481 118.344C179.543 111.525 177.716 103.69 178.23 95.8324C178.745 87.9744 181.578 80.4454 186.372 74.1975C191.165 67.9497 197.704 63.2636 205.161 60.7317C212.617 58.1998 220.658 57.936 228.264 59.9735C235.871 62.011 242.703 66.2583 247.896 72.1784C253.088 78.0985 256.409 85.4255 257.438 93.2329C258.467 101.04 257.157 108.977 253.675 116.041C250.193 123.104 244.695 128.976 237.876 132.914C233.348 135.529 228.35 137.227 223.166 137.91C217.982 138.593 212.715 138.248 207.664 136.895C202.614 135.542 197.879 133.207 193.731 130.024C189.583 126.842 186.103 122.873 183.489 118.344H183.481Z" fill="#319595"/>
<path opacity="0.1" d="M261.665 73.1929C256.674 64.5392 249.229 57.5603 240.27 53.1392C231.312 48.7181 221.244 47.0536 211.34 48.3562C201.435 49.6588 192.14 53.87 184.629 60.457C177.119 67.044 171.731 75.7107 169.147 85.3606C166.564 95.0105 166.901 105.21 170.116 114.668C173.33 124.127 179.278 132.419 187.207 138.496C195.136 144.573 204.689 148.161 214.658 148.807C224.627 149.453 234.563 147.128 243.21 142.125C254.791 135.425 263.24 124.402 266.7 111.478C270.16 98.5529 268.349 84.7834 261.665 73.1929V73.1929ZM183.481 118.344C179.543 111.525 177.716 103.69 178.23 95.8324C178.745 87.9744 181.578 80.4454 186.372 74.1975C191.165 67.9497 197.704 63.2636 205.161 60.7317C212.617 58.1998 220.658 57.936 228.264 59.9735C235.871 62.011 242.703 66.2583 247.896 72.1784C253.088 78.0985 256.409 85.4255 257.438 93.2329C258.467 101.04 257.157 108.977 253.675 116.041C250.193 123.104 244.695 128.976 237.876 132.914C233.348 135.529 228.35 137.227 223.166 137.91C217.982 138.593 212.715 138.248 207.664 136.895C202.614 135.542 197.879 133.207 193.731 130.024C189.583 126.842 186.103 122.873 183.489 118.344H183.481Z" fill="black"/>
<path d="M101.851 150.351L108.09 151.801L102.918 155.661C102.918 155.661 99.2125 153.983 99.0415 151.353L101.851 150.351Z" fill="#E4897B"/>
<path d="M111.429 155.954L106.933 158.951L102.918 155.661L108.09 151.809L111.429 155.954Z" fill="#E4897B"/>
<path d="M181.998 125.015C175.369 129.901 168.569 134.543 161.736 139.08C154.903 143.616 147.98 148.038 141.025 152.379C134.07 156.72 127.049 160.971 120.005 165.1C116.486 167.201 112.936 169.237 109.417 171.306C107.67 172.419 105.764 173.262 103.765 173.806C102.699 174.089 101.608 174.272 100.508 174.352C99.2857 174.452 98.0561 174.389 96.8508 174.165C95.9895 173.994 95.1702 173.656 94.4399 173.168C93.7095 172.681 93.0825 172.054 92.5945 171.324C92.1066 170.594 91.7675 169.775 91.5964 168.914C91.4254 168.053 91.4259 167.167 91.5978 166.306C91.6536 166.029 91.7298 165.757 91.8259 165.491C92.219 164.337 92.7669 163.241 93.4547 162.233C94.0682 161.328 94.7663 160.482 95.5396 159.709C97.0125 158.25 98.6953 157.021 100.532 156.06C104.091 154.032 107.626 151.988 111.209 149.976C118.343 145.945 125.543 142.02 132.759 138.143C139.974 134.266 147.28 130.512 154.626 126.847C161.972 123.182 169.375 119.615 176.933 116.325C178.073 115.82 179.36 115.755 180.546 116.142C181.731 116.528 182.732 117.339 183.356 118.419C183.98 119.499 184.184 120.771 183.927 121.991C183.67 123.212 182.972 124.294 181.966 125.031L181.998 125.015Z" fill="#319595"/>
<path opacity="0.1" d="M181.998 125.015C175.369 129.901 168.569 134.543 161.736 139.08C154.903 143.616 147.98 148.038 141.025 152.379C134.07 156.72 127.049 160.971 120.005 165.1C116.486 167.201 112.936 169.237 109.417 171.306C107.67 172.419 105.764 173.262 103.765 173.806C102.699 174.089 101.608 174.272 100.508 174.352C99.2857 174.452 98.0561 174.389 96.8508 174.165C95.9895 173.994 95.1702 173.656 94.4399 173.168C93.7095 172.681 93.0825 172.054 92.5945 171.324C92.1066 170.594 91.7675 169.775 91.5964 168.914C91.4254 168.053 91.4259 167.167 91.5978 166.306C91.6536 166.029 91.7298 165.757 91.8259 165.491C92.219 164.337 92.7669 163.241 93.4547 162.233C94.0682 161.328 94.7663 160.482 95.5396 159.709C97.0125 158.25 98.6953 157.021 100.532 156.06C104.091 154.032 107.626 151.988 111.209 149.976C118.343 145.945 125.543 142.02 132.759 138.143C139.974 134.266 147.28 130.512 154.626 126.847C161.972 123.182 169.375 119.615 176.933 116.325C178.073 115.82 179.36 115.755 180.546 116.142C181.731 116.528 182.732 117.339 183.356 118.419C183.98 119.499 184.184 120.771 183.927 121.991C183.67 123.212 182.972 124.294 181.966 125.031L181.998 125.015Z" fill="black"/>
<path d="M110.891 111.772C110.484 112.432 110.02 113.23 109.58 113.979C109.14 114.728 108.709 115.51 108.301 116.3C107.487 117.856 106.673 119.436 105.858 121.04C105.044 122.644 104.384 124.298 103.716 125.927C103.391 126.741 103.048 127.555 102.747 128.37L102.291 129.616C102.201 129.852 102.185 129.95 102.128 130.121C102.071 130.292 102.047 130.455 101.998 130.618C101.68 132.227 101.519 133.864 101.517 135.504C101.477 137.255 101.517 139.039 101.615 140.839C101.713 142.638 101.811 144.446 101.973 146.254C102.136 148.062 102.299 149.903 102.47 151.695L99.3266 152.338C98.7728 150.522 98.3411 148.714 97.9095 146.882C97.4779 145.049 97.1521 143.209 96.8345 141.335C96.5169 139.462 96.3051 137.581 96.1667 135.634C95.9972 133.596 96.0491 131.545 96.3214 129.518C96.3703 129.233 96.411 128.964 96.4843 128.704C96.5576 128.443 96.6309 128.077 96.696 127.889L97.0951 126.505C97.3557 125.584 97.657 124.672 97.9665 123.768C98.5936 121.952 99.2777 120.169 100.043 118.409C100.809 116.65 101.623 114.932 102.487 113.238C102.934 112.423 103.407 111.552 103.887 110.713C104.368 109.874 104.848 109.084 105.451 108.197L110.891 111.772Z" fill="#E4897B"/>
<path d="M107.414 279.933C106.864 279.916 106.318 279.84 105.785 279.705C105.757 279.701 105.73 279.687 105.71 279.667C105.689 279.646 105.676 279.62 105.671 279.591C105.666 279.562 105.669 279.532 105.681 279.504C105.692 279.477 105.712 279.453 105.736 279.437C105.956 279.29 107.878 278.052 108.619 278.386C108.702 278.424 108.772 278.483 108.824 278.557C108.876 278.632 108.906 278.719 108.912 278.809C108.951 278.954 108.948 279.107 108.905 279.251C108.862 279.395 108.78 279.524 108.668 279.624C108.301 279.875 107.856 279.985 107.414 279.933ZM106.168 279.493C107.275 279.713 108.106 279.673 108.424 279.379C108.494 279.312 108.545 279.228 108.572 279.135C108.599 279.043 108.601 278.944 108.579 278.85C108.578 278.809 108.565 278.768 108.542 278.734C108.519 278.699 108.486 278.672 108.448 278.655C108.065 278.484 106.95 279.021 106.168 279.493V279.493Z" fill="#319595"/>
<path d="M105.777 279.713C105.753 279.72 105.727 279.72 105.703 279.713C105.68 279.701 105.661 279.682 105.648 279.659C105.635 279.636 105.629 279.61 105.63 279.583C105.63 279.51 105.63 277.685 106.322 277.075C106.408 276.998 106.509 276.94 106.618 276.905C106.728 276.87 106.843 276.858 106.958 276.871C107.078 276.873 107.194 276.916 107.286 276.993C107.378 277.07 107.44 277.177 107.463 277.295C107.609 278.003 106.453 279.371 105.834 279.738C105.813 279.734 105.793 279.726 105.777 279.713ZM106.86 277.14C106.736 277.141 106.618 277.187 106.526 277.27C106.126 277.86 105.92 278.561 105.94 279.274C106.542 278.785 107.259 277.759 107.169 277.327C107.169 277.254 107.112 277.172 106.925 277.148L106.86 277.14Z" fill="#319595"/>
<path d="M136.26 279.933C135.589 279.923 134.921 279.847 134.265 279.705C134.234 279.702 134.205 279.688 134.183 279.665C134.16 279.643 134.146 279.614 134.143 279.583C134.139 279.552 134.145 279.521 134.16 279.493C134.174 279.465 134.197 279.443 134.224 279.428C134.509 279.282 137.034 277.995 137.808 278.418C137.882 278.456 137.945 278.513 137.991 278.583C138.037 278.653 138.063 278.734 138.068 278.817C138.086 278.952 138.07 279.088 138.022 279.215C137.973 279.342 137.894 279.454 137.791 279.542C137.341 279.844 136.8 279.983 136.26 279.933V279.933ZM134.762 279.493C136.171 279.73 137.205 279.664 137.596 279.322C137.661 279.262 137.71 279.187 137.74 279.103C137.77 279.019 137.779 278.93 137.767 278.842C137.767 278.808 137.758 278.776 137.74 278.747C137.723 278.718 137.699 278.695 137.669 278.679C137.246 278.451 135.796 278.997 134.762 279.493Z" fill="#319595"/>
<path d="M134.29 279.713C134.277 279.719 134.263 279.721 134.249 279.721C134.235 279.721 134.221 279.719 134.208 279.713C134.185 279.701 134.166 279.682 134.154 279.659C134.142 279.635 134.138 279.609 134.143 279.583C134.143 279.51 134.298 277.799 135.088 277.14C135.315 276.95 135.607 276.856 135.902 276.879C136.317 276.92 136.431 277.132 136.464 277.303C136.578 278.019 135.088 279.388 134.33 279.746L134.29 279.713ZM135.804 277.14C135.613 277.142 135.429 277.211 135.283 277.335C134.816 277.887 134.531 278.57 134.469 279.29C135.234 278.826 136.252 277.751 136.179 277.319C136.179 277.319 136.179 277.172 135.886 277.148L135.804 277.14Z" fill="#319595"/>
<path d="M120.534 87.3151C121.031 91.1184 122.163 98.8309 119.41 101.16C119.41 101.16 120.225 105.037 127.163 105.485C134.835 105.982 131.073 101.918 131.073 101.918C126.952 100.647 127.261 97.5442 128.181 94.6774L120.534 87.3151Z" fill="#E4897B"/>
<path d="M134.762 79.5862C134.713 79.5851 134.665 79.571 134.624 79.5454C134.588 79.5275 134.557 79.5025 134.531 79.472C134.505 79.4415 134.486 79.4062 134.475 79.3681C134.464 79.33 134.46 79.29 134.465 79.2505C134.469 79.2109 134.482 79.1728 134.501 79.1382C134.713 78.7074 135.026 78.3342 135.413 78.0506C135.8 77.7669 136.25 77.5812 136.725 77.5094C136.798 77.5122 136.867 77.5414 136.92 77.5915C136.973 77.6415 137.006 77.7091 137.013 77.7818C137.02 77.8544 137 77.927 136.958 77.9863C136.915 78.0455 136.853 78.0873 136.782 78.1039V78.1039C136.41 78.1688 136.059 78.3187 135.755 78.542C135.452 78.7652 135.204 79.0557 135.031 79.3907C135.008 79.4444 134.97 79.4909 134.923 79.5253C134.876 79.5597 134.82 79.5807 134.762 79.5862V79.5862Z" fill="#263238"/>
<path d="M136.953 82.9253C137.514 84.0438 138.226 85.0797 139.07 86.0038C138.828 86.2142 138.543 86.3691 138.235 86.4577C137.927 86.5463 137.603 86.5665 137.287 86.5169L136.953 82.9253Z" fill="#DE5753"/>
<path d="M136.415 82.0946C136.464 82.6077 136.774 82.9904 137.099 82.9579C137.425 82.9253 137.669 82.4937 137.621 81.9806C137.572 81.4675 137.262 81.0847 136.928 81.1173C136.594 81.1499 136.366 81.5897 136.415 82.0946Z" fill="#263238"/>
<path d="M136.823 81.158L138.012 80.6938C138.012 80.6938 137.441 81.7037 136.823 81.158Z" fill="#263238"/>
<path d="M127.318 279.559H133.662L134.086 264.883H127.742L127.318 279.559Z" fill="#E4897B"/>
<path d="M98.5122 279.559H104.857L106.893 264.883H100.556L98.5122 279.559Z" fill="#E4897B"/>
<path d="M105.247 278.826H98.1212C97.999 278.824 97.8806 278.867 97.7877 278.947C97.6949 279.026 97.634 279.137 97.6162 279.257L96.8018 284.893C96.7858 285.035 96.7999 285.179 96.8433 285.316C96.8868 285.452 96.9585 285.578 97.0538 285.685C97.1491 285.792 97.2658 285.877 97.3964 285.936C97.527 285.994 97.6685 286.025 97.8117 286.025C100.255 285.984 101.493 285.838 104.628 285.838C106.55 285.838 109.368 286.033 112.031 286.033C114.695 286.033 114.833 283.403 113.725 283.167C108.757 282.1 107.976 280.626 106.298 279.217C106.005 278.966 105.633 278.828 105.247 278.826V278.826Z" fill="#263238"/>
<path d="M133.874 278.826H126.756C126.634 278.823 126.514 278.865 126.421 278.945C126.328 279.024 126.267 279.136 126.251 279.257L125.437 284.893C125.422 285.036 125.437 285.18 125.482 285.316C125.526 285.453 125.599 285.579 125.695 285.685C125.79 285.792 125.908 285.877 126.039 285.936C126.17 285.994 126.311 286.025 126.455 286.025C128.898 285.984 130.136 285.838 133.263 285.838C135.194 285.838 139.176 286.033 141.839 286.033C144.502 286.033 144.641 283.403 143.533 283.167C138.565 282.1 136.611 280.626 134.933 279.217C134.638 278.964 134.262 278.826 133.874 278.826V278.826Z" fill="#263238"/>
<path d="M134.078 264.883L133.866 272.449H127.522L127.742 264.883H134.078Z" fill="#CE6F64"/>
<path d="M100.548 264.883H106.892L105.842 272.449H99.4976L100.548 264.883Z" fill="#CE6F64"/>
<path d="M113.595 112.749C112.391 114.63 110.997 116.383 109.433 117.978L108.709 117.497L100.678 112.163C100.678 112.163 105.06 102.39 108.358 101.893C111.51 101.388 113.807 104.646 114.874 108.132C115.281 109.394 114.605 111.104 113.595 112.749Z" fill="#319595"/>
<path opacity="0.6" d="M113.595 112.749C112.391 114.63 110.997 116.383 109.433 117.978L108.709 117.497L100.678 112.163C100.678 112.163 105.06 102.39 108.358 101.893C111.51 101.388 113.807 104.646 114.874 108.132C115.281 109.394 114.605 111.104 113.595 112.749Z" fill="#FAFAFA"/>
<path d="M113.595 112.749C112.391 114.63 110.997 116.383 109.434 117.978L108.709 117.497C109.067 114.566 110.207 111.658 111.51 110.738C112.308 110.819 113.017 111.666 113.595 112.749Z" fill="#319595"/>
<path opacity="0.4" d="M113.595 112.749C112.391 114.63 110.997 116.383 109.434 117.978L108.709 117.497C109.067 114.566 110.207 111.658 111.51 110.738C112.308 110.819 113.017 111.666 113.595 112.749Z" fill="#FAFAFA"/>
<path d="M141.065 117.628C140.683 120.071 140.186 122.946 139.518 126.358C138.704 130.724 137.563 135.96 136.122 142.223L110.427 140.594C111.535 130.162 111.966 123.711 108.358 101.926C112.006 101.416 115.686 101.174 119.369 101.201C123.27 101.175 127.167 101.428 131.032 101.958C136.016 102.773 141.619 104.271 141.619 104.271C141.619 104.271 143.053 104.833 141.065 117.628Z" fill="#319595"/>
<path opacity="0.6" d="M141.065 117.628C140.683 120.071 140.186 122.946 139.518 126.358C138.704 130.724 137.563 135.96 136.122 142.223L110.427 140.594C111.535 130.162 111.966 123.711 108.358 101.926C112.006 101.416 115.686 101.174 119.369 101.201C123.27 101.175 127.167 101.428 131.032 101.958C136.016 102.773 141.619 104.271 141.619 104.271C141.619 104.271 143.053 104.833 141.065 117.628Z" fill="#FAFAFA"/>
<path d="M141.066 117.628C140.683 120.071 140.186 122.946 139.518 126.358C138.105 123.353 136.931 120.24 136.008 117.049H140.781L141.066 117.628Z" fill="#319595"/>
<path opacity="0.4" d="M141.066 117.628C140.683 120.071 140.186 122.946 139.518 126.358C138.105 123.353 136.931 120.24 136.008 117.049H140.781L141.066 117.628Z" fill="#FAFAFA"/>
<path d="M119.133 81.9642C120.102 88.1783 120.387 90.8333 123.849 93.7408C129.053 98.1223 136.472 95.565 137.376 89.18C138.191 83.4383 136.464 74.2354 130.104 72.3297C128.704 71.9004 127.219 71.8363 125.788 72.1435C124.357 72.4507 123.029 73.119 121.929 74.0847C120.829 75.0504 119.995 76.2815 119.506 77.6607C119.016 79.0399 118.888 80.5214 119.133 81.9642V81.9642Z" fill="#E4897B"/>
<path d="M129.33 141.783C129.33 141.783 128.923 153.096 127.945 167.364C127.131 179.336 125.901 193.377 124.183 204.567L124.134 204.876C121.047 224.683 107.373 270.975 107.373 270.975H98.7239C98.7239 270.975 105.85 226.263 107.414 206.636C111.38 157.062 101.444 151.451 110.427 140.521L129.33 141.783Z" fill="#319595"/>
<path opacity="0.3" d="M129.33 141.783C129.33 141.783 128.923 153.096 127.945 167.364C127.131 179.336 125.901 193.377 124.183 204.567L124.134 204.876C121.047 224.683 107.373 270.975 107.373 270.975H98.7239C98.7239 270.975 105.85 226.263 107.414 206.636C111.38 157.062 101.444 151.451 110.427 140.521L129.33 141.783Z" fill="black"/>
<path d="M127.945 167.364C127.131 179.336 125.901 193.377 124.183 204.567C121.259 190.03 116.454 168.798 122.904 154.887C124.443 158.837 126.235 163.3 127.945 167.364Z" fill="#319595"/>
<path opacity="0.4" d="M127.945 167.364C127.131 179.336 125.901 193.377 124.183 204.567C121.259 190.03 116.454 168.798 122.904 154.887C124.443 158.837 126.235 163.3 127.945 167.364Z" fill="black"/>
<path d="M136.122 142.231C136.122 142.231 143.452 185.672 143.012 205.007C142.58 225.123 135.21 270.975 135.21 270.975H126.642C126.642 270.975 127.994 226.287 127.237 206.538C126.422 185.005 117.301 141.001 117.301 141.001L136.122 142.231Z" fill="#319595"/>
<path opacity="0.3" d="M136.122 142.231C136.122 142.231 143.452 185.672 143.012 205.007C142.58 225.123 135.21 270.975 135.21 270.975H126.642C126.642 270.975 127.994 226.287 127.237 206.538C126.422 185.005 117.301 141.001 117.301 141.001L136.122 142.231Z" fill="black"/>
<path d="M125.176 271.382H136.668L137.564 267.53L124.769 267.619L125.176 271.382Z" fill="#263238"/>
<path d="M97.4697 271.382H108.961L109.857 267.53L97.5512 267.619L97.4697 271.382Z" fill="#263238"/>
<path d="M110.134 139.039L108.831 141.27C108.725 141.441 108.929 141.637 109.222 141.653L136.171 143.404C136.399 143.404 136.603 143.323 136.627 143.176L137.01 140.887C137.01 140.733 136.839 140.586 136.586 140.57L110.525 138.876C110.452 138.873 110.379 138.885 110.311 138.914C110.244 138.942 110.183 138.984 110.134 139.039V139.039Z" fill="#263238"/>
<path d="M113.44 142.166L112.748 142.117C112.61 142.117 112.504 142.028 112.52 141.946L113.041 138.974C113.041 138.892 113.18 138.827 113.318 138.835L114.019 138.876C114.157 138.876 114.255 138.966 114.247 139.055L113.726 142.02C113.709 142.109 113.579 142.174 113.44 142.166Z" fill="#319595"/>
<path opacity="0.3" d="M113.44 142.166L112.748 142.117C112.61 142.117 112.504 142.028 112.52 141.946L113.041 138.974C113.041 138.892 113.18 138.827 113.318 138.835L114.019 138.876C114.157 138.876 114.255 138.966 114.247 139.055L113.726 142.02C113.709 142.109 113.579 142.174 113.44 142.166Z" fill="black"/>
<path d="M130.307 143.257L129.615 143.217C129.476 143.217 129.371 143.127 129.387 143.038L129.908 140.073C129.908 139.983 130.047 139.926 130.193 139.935L130.885 139.975C131.024 139.975 131.13 140.065 131.113 140.154L130.592 143.119C130.6 143.209 130.47 143.266 130.307 143.257Z" fill="#319595"/>
<path opacity="0.3" d="M130.307 143.257L129.615 143.217C129.476 143.217 129.371 143.127 129.387 143.038L129.908 140.073C129.908 139.983 130.047 139.926 130.193 139.935L130.885 139.975C131.024 139.975 131.13 140.065 131.113 140.154L130.592 143.119C130.6 143.209 130.47 143.266 130.307 143.257Z" fill="black"/>
<path d="M143.077 110.787C144.054 114.044 144.983 117.343 145.887 120.633L148.615 130.479L148.957 131.701L149.047 132.002L149.088 132.157V132.238C149.117 132.346 149.152 132.452 149.193 132.556C149.393 133.051 149.668 133.512 150.008 133.924C150.98 134.951 152.107 135.819 153.347 136.498C156.188 138.035 159.193 139.248 162.306 140.114L161.833 143.29C158.181 143.102 154.584 142.323 151.181 140.985C149.298 140.247 147.562 139.177 146.058 137.825C145.196 137.026 144.48 136.084 143.94 135.04C143.795 134.758 143.667 134.467 143.558 134.169L143.468 133.949L143.411 133.794L143.305 133.493L142.873 132.263C141.733 129.005 140.675 125.747 139.673 122.441C138.671 119.134 137.686 115.877 136.79 112.554L143.077 110.787Z" fill="#E4897B"/>
<path d="M141.619 104.239C144.877 105.306 148.298 115.958 148.298 115.958L136.537 121.024C136.537 121.024 131.651 109.068 133.817 106.364C135.983 103.66 137.881 103.017 141.619 104.239Z" fill="#319595"/>
<path opacity="0.6" d="M141.619 104.239C144.877 105.306 148.298 115.958 148.298 115.958L136.537 121.024C136.537 121.024 131.651 109.068 133.817 106.364C135.983 103.66 137.881 103.017 141.619 104.239Z" fill="#FAFAFA"/>
<path d="M135.332 71.9714C133.255 69.4059 117.211 67.5735 116.356 74.5612C110.655 78.5519 116.063 88.8624 116.877 91.4848C112.944 92.5762 100.271 96.9089 109.547 105.33C118.824 113.751 132.734 112.318 135.454 103.603C137.36 97.5115 131.309 87.315 131.439 83.7479C131.569 80.1807 138.891 76.3285 135.332 71.9714Z" fill="#263238"/>
<path d="M118.001 92.7716C117.971 92.7726 117.942 92.7664 117.915 92.7537C117.888 92.7409 117.865 92.722 117.846 92.6983C116.372 90.9066 111.242 81.4919 113.041 77.0126C113.321 76.3176 113.794 75.7177 114.405 75.2845C115.016 74.8512 115.738 74.603 116.486 74.5694C116.513 74.566 116.539 74.568 116.565 74.5752C116.591 74.5825 116.614 74.5949 116.635 74.6117C116.655 74.6284 116.672 74.6492 116.685 74.6728C116.697 74.6963 116.704 74.7221 116.706 74.7485C116.713 74.8014 116.699 74.8548 116.667 74.8975C116.635 74.9401 116.588 74.9685 116.535 74.9766C115.863 75.0014 115.211 75.2187 114.658 75.6027C114.105 75.9867 113.674 76.5213 113.416 77.1429C111.681 81.4756 116.714 90.6704 118.156 92.4296C118.182 92.4583 118.198 92.4939 118.204 92.5321C118.209 92.5702 118.204 92.6091 118.187 92.644C118.17 92.6788 118.144 92.7079 118.111 92.7277C118.078 92.7476 118.04 92.7572 118.001 92.7553V92.7716Z" fill="#263238"/>
<path d="M130.169 83.365C130.35 84.5544 130.923 85.6492 131.797 86.4761C132.954 87.5837 134.045 86.8263 134.151 85.4174C134.249 84.155 133.76 82.062 132.392 81.4756C131.024 80.8892 129.998 81.9561 130.169 83.365Z" fill="#E4897B"/>
<path d="M158.315 139.234L162.941 137.662L162.216 143.225C162.216 143.225 160.392 144.039 158.03 141.987L155.774 140.545L157.549 139.576C157.793 139.438 158.049 139.323 158.315 139.234Z" fill="#E4897B"/>
<path d="M166.174 137.646L164.757 142.508L162.216 143.217L162.941 137.662L166.174 137.646Z" fill="#E4897B"/>
</svg>
