<svg width="900" height="589" viewBox="0 0 900 589" fill="none" xmlns="http://www.w3.org/2000/svg">
<g clip-path="url(#clip0)">
<path d="M345.698 580.019C345.752 580.073 345.77 580.107 345.776 580.122C345.77 580.136 345.752 580.17 345.698 580.224C345.602 580.321 345.432 580.441 345.16 580.578C344.618 580.85 343.782 581.132 342.64 581.417C340.364 581.984 336.987 582.536 332.612 583.064C323.868 584.119 311.204 585.07 295.542 585.869C264.22 587.467 220.945 588.456 173.139 588.456C125.334 588.456 82.0579 587.467 50.7368 585.869C35.0745 585.07 22.4102 584.119 13.666 583.064C9.29088 582.536 5.91409 581.984 3.63854 581.417C2.49677 581.132 1.65978 580.85 1.11837 580.578C0.846609 580.441 0.676153 580.321 0.579999 580.224C0.526504 580.17 0.507891 580.136 0.501837 580.122C0.507891 580.107 0.526504 580.073 0.579999 580.019C0.676153 579.923 0.846609 579.802 1.11837 579.665C1.65978 579.393 2.49677 579.111 3.63854 578.826C5.91409 578.259 9.29088 577.707 13.666 577.179C22.4102 576.124 35.0745 575.173 50.7368 574.374C82.0579 572.776 125.334 571.787 173.139 571.787C220.945 571.787 264.22 572.776 295.542 574.374C311.204 575.173 323.868 576.124 332.612 577.179C336.987 577.707 340.364 578.259 342.64 578.826C343.782 579.111 344.618 579.393 345.16 579.665C345.432 579.802 345.602 579.923 345.698 580.019ZM0.499157 580.113C0.499224 580.113 0.499461 580.114 0.499667 580.116L0.499157 580.113ZM0.499157 580.13C0.499089 580.13 0.499192 580.129 0.499667 580.128L0.499157 580.13Z" fill="black" stroke="black"/>
<path d="M814.729 432.789C766.234 467.521 701.437 488.729 630.258 488.729C572.038 488.729 505.121 468.788 450 439.8C454.359 428.5 460.432 419.342 468.877 414.703C469.087 414.584 469.304 414.465 469.521 414.36C473.128 412.506 477.11 411.499 481.164 411.414C530.841 410.015 525.244 465.989 587.515 389.024C626.242 341.159 670.112 324.689 700.1 330.014C700.653 330.112 701.199 330.217 701.745 330.328C719.125 333.939 731.558 345.064 735.147 361.737C744.943 407.216 716.256 443.599 768.732 432.405C783.916 429.245 799.6 429.376 814.729 432.789Z" fill="#319595" stroke="black" stroke-width="0.5"/>
<path d="M667.615 486.872C643.21 473.267 628.017 454.693 622.458 431.666C618.33 414.569 619.516 395.33 625.983 374.483C630.777 359.113 637.964 344.595 647.28 331.463C696.705 261.505 701.165 215.92 696.204 189.998C690.765 161.575 673.093 149.77 672.915 149.655L673.678 148.481C673.86 148.6 691.998 160.679 697.568 189.678C700.779 206.397 699.269 225.46 693.078 246.339C685.373 272.324 670.349 301.235 648.424 332.271C639.192 345.282 632.07 359.667 627.319 374.897C616.713 409.088 615.213 456.058 668.296 485.651L667.615 486.872Z" fill="black" stroke="black" stroke-width="0.5"/>
<path d="M624.441 354.534C605.201 343.809 605.737 326.812 609.574 314.442C611.276 308.986 613.827 303.832 617.134 299.171C634.449 274.663 636.013 258.741 634.277 249.701C632.391 239.884 626.342 235.854 626.281 235.814L627.044 234.641C627.312 234.815 633.654 239.041 635.651 249.437C638.251 262.975 632.406 279.979 618.277 299.979C615.055 304.52 612.569 309.54 610.911 314.856C607.227 326.732 606.702 343.044 625.122 353.312L624.441 354.534Z" fill="black" stroke="black" stroke-width="0.5"/>
<path d="M711.003 204.803L710.322 203.581C728.742 193.312 728.217 177 724.534 165.125C722.876 159.809 720.39 154.789 717.168 150.247C703.039 130.248 697.193 113.243 699.793 99.7059C701.79 89.3095 708.132 85.0841 708.401 84.9095L709.165 86.082C709.103 86.1223 703.023 90.2056 701.157 100.025C699.44 109.06 701.022 124.968 718.311 149.44C721.617 154.101 724.169 159.254 725.87 164.71C729.707 177.08 730.243 194.078 711.003 204.803Z" fill="black" stroke="black" stroke-width="0.5"/>
<path d="M751.872 135.047L751.872 135.046C753.423 132.67 754.401 128.81 754.985 124.318C755.567 119.837 755.752 114.763 755.739 109.986C755.727 105.211 755.516 100.737 755.309 97.4569C755.205 95.8171 755.102 94.4759 755.025 93.5449C754.987 93.0795 754.955 92.7166 754.933 92.4702C754.931 92.448 754.929 92.4269 754.927 92.4066C754.908 92.4131 754.887 92.4199 754.866 92.4269C754.632 92.5058 754.287 92.6227 753.845 92.775C752.962 93.0797 751.693 93.5259 750.151 94.0917C747.065 95.2234 742.886 96.8331 738.51 98.7455C734.133 100.658 729.564 102.872 725.696 105.21C721.82 107.554 718.682 110.004 717.131 112.381L717.131 112.381L717.125 112.39L751.872 135.047ZM751.872 135.047C748.868 139.654 744.156 142.88 738.774 144.013M751.872 135.047L738.774 144.013M738.774 144.013C733.391 145.147 727.779 144.096 723.171 141.092M738.774 144.013L723.171 141.092M723.171 141.092C718.563 138.087 715.338 133.376 714.204 127.993M723.171 141.092L714.204 127.993M714.204 127.993C713.07 122.611 714.121 116.998 717.125 112.39L714.204 127.993Z" fill="#319595" stroke="black" stroke-width="0.5"/>
<path d="M744.176 69.9764L744.176 69.9765C741.171 74.5842 736.46 77.8097 731.077 78.9434C725.695 80.0771 720.082 79.0262 715.474 76.0218C710.867 73.0174 707.641 68.3056 706.507 62.923C705.374 57.5405 706.425 51.928 709.429 47.3203C709.429 47.3203 709.429 47.3202 709.429 47.3202L709.435 47.3112L709.228 47.1763L709.435 47.3112C710.986 44.9342 714.124 42.4839 718 40.1402C721.867 37.8017 726.436 35.5883 730.813 33.6754C735.189 31.763 739.369 30.1533 742.454 29.0216C743.997 28.4558 745.266 28.0097 746.149 27.705C746.59 27.5526 746.935 27.4357 747.17 27.3569C747.191 27.3498 747.211 27.343 747.23 27.3366C747.232 27.3568 747.234 27.378 747.236 27.4001C747.259 27.6465 747.291 28.0094 747.329 28.4749C747.406 29.4058 747.509 30.747 747.612 32.3868C747.82 35.6668 748.03 40.1405 748.043 44.9163C748.056 49.6931 747.871 54.7667 747.289 59.2484C746.705 63.74 745.727 67.5995 744.176 69.9764Z" fill="#319595" stroke="black" stroke-width="0.5"/>
<path d="M743.389 267.084C742.046 266.769 710.358 259.402 699.792 264.433C695.346 266.55 691.752 270.118 689.602 274.549C687.453 278.98 686.875 284.011 687.965 288.814C689.054 293.617 691.746 297.906 695.597 300.977C699.448 304.047 704.229 305.715 709.154 305.707C710.731 305.708 712.303 305.534 713.842 305.189C715.431 304.833 716.976 304.301 718.446 303.601C729.011 298.563 743.257 269.316 743.858 268.071L744.243 267.287L743.389 267.084ZM717.844 302.334C715.439 303.48 712.831 304.141 710.17 304.279C707.509 304.417 704.847 304.029 702.336 303.139C699.825 302.248 697.514 300.871 695.535 299.087C693.556 297.303 691.947 295.147 690.802 292.742C689.656 290.336 688.995 287.728 688.857 285.068C688.719 282.407 689.106 279.745 689.997 277.234C690.888 274.722 692.265 272.411 694.048 270.432C695.832 268.453 697.989 266.845 700.394 265.699C702.857 264.524 706.621 264.083 710.917 264.083C722.672 264.083 738.387 267.406 742.207 268.253C739.821 273.039 727.038 297.954 717.844 302.334V302.334Z" fill="black" stroke="black" stroke-width="0.5"/>
<path d="M648.028 148.217C642.625 148.226 637.414 146.209 633.424 142.565C624.776 134.679 619.642 102.552 619.428 101.189L619.292 100.326L620.164 100.382C621.541 100.469 654.004 102.624 662.653 110.51C665.888 113.457 668.155 117.313 669.157 121.573C670.159 125.833 669.848 130.296 668.266 134.376C666.683 138.456 663.904 141.962 660.292 144.432C656.68 146.902 652.405 148.222 648.029 148.217H648.028ZM620.955 101.842C621.85 107.11 626.843 134.671 634.367 141.531C638.344 145.154 643.597 147.05 648.972 146.801C654.346 146.552 659.401 144.179 663.026 140.203C666.651 136.228 668.549 130.975 668.302 125.601C668.055 120.226 665.684 115.17 661.71 111.543V111.543C654.186 104.684 626.283 102.248 620.955 101.842V101.842Z" fill="black" stroke="black" stroke-width="0.5"/>
<path d="M618.633 198.671C620.645 200.506 622.277 202.72 623.434 205.185C624.591 207.651 625.251 210.321 625.377 213.041C625.502 215.762 625.09 218.481 624.165 221.043C623.24 223.604 621.819 225.959 619.984 227.971C618.149 229.984 615.935 231.615 613.47 232.773C611.004 233.93 608.335 234.59 605.614 234.715C602.893 234.841 600.174 234.429 597.612 233.504C595.051 232.579 592.696 231.158 590.684 229.323C588.587 227.411 586.672 223.92 584.981 219.718C583.293 215.525 581.842 210.66 580.657 206.033C579.472 201.406 578.554 197.023 577.932 193.795C577.622 192.182 577.385 190.858 577.226 189.937C577.147 189.477 577.087 189.118 577.046 188.874C577.043 188.852 577.039 188.831 577.036 188.811C577.056 188.812 577.078 188.814 577.1 188.815C577.346 188.833 577.71 188.859 578.175 188.896C579.107 188.97 580.447 189.083 582.082 189.244C585.353 189.566 589.802 190.077 594.518 190.831C599.235 191.585 604.213 192.582 608.543 193.877C612.883 195.174 616.535 196.759 618.633 198.671Z" fill="#319595" stroke="black" stroke-width="0.5"/>
<path d="M683.133 199.257C682.553 196.588 681.08 194.196 678.956 192.477C676.833 190.759 674.187 189.816 671.455 189.805C670.594 189.808 669.736 189.902 668.894 190.085C662.639 191.442 651.521 205.065 651.053 205.638L650.5 206.317L651.284 206.709C651.899 207.017 665.291 213.65 672.302 213.65C672.861 213.657 673.419 213.603 673.967 213.489C677.069 212.816 679.776 210.938 681.495 208.27C683.214 205.601 683.803 202.36 683.133 199.257H683.133ZM680.32 207.514C679.573 208.686 678.599 209.697 677.457 210.489C676.315 211.28 675.026 211.836 673.666 212.125C668.643 213.216 656.006 207.416 652.704 205.841C655.055 203.043 664.165 192.54 669.195 191.449C671.24 191.006 673.369 191.18 675.315 191.948C677.261 192.716 678.935 194.044 680.126 195.764C681.317 197.483 681.971 199.518 682.005 201.609C682.04 203.701 681.454 205.755 680.32 207.514V207.514Z" fill="black" stroke="black" stroke-width="0.5"/>
<path d="M190.34 345.992L222.743 371.821L222.577 372.067L223.075 372.043C223.142 372.04 223.202 372.036 223.26 372.032C223.36 372.025 223.451 372.019 223.552 372.019C225.462 372.018 227.329 372.584 228.918 373.644C230.507 374.704 231.747 376.211 232.48 377.975C233.213 379.738 233.407 381.68 233.038 383.554C232.669 385.428 231.753 387.151 230.405 388.504C229.058 389.858 227.339 390.783 225.467 391.161C223.595 391.539 221.652 391.354 219.885 390.629C218.118 389.904 216.605 388.672 215.538 387.088C214.47 385.504 213.896 383.639 213.887 381.729L213.887 381.602L213.784 381.528L163.963 345.294L200.325 308.933C201.485 307.773 202.927 306.935 204.51 306.503C206.092 306.071 207.76 306.059 209.348 306.468C210.937 306.877 212.391 307.693 213.568 308.836C214.739 309.974 215.595 311.396 216.052 312.963C216.054 312.971 216.056 312.978 216.058 312.985V312.985C216.526 314.606 216.551 316.322 216.131 317.956C215.71 319.59 214.859 321.081 213.666 322.274L190.32 345.62L190.122 345.818L190.34 345.992Z" fill="white" stroke="black" stroke-width="0.5"/>
<path d="M282.127 566.98L271.721 570.864L256.276 529.492L271.787 523.703L282.127 566.98Z" fill="white" stroke="black" stroke-width="0.5"/>
<path d="M306.694 569.02L306.78 569.252L273.157 581.805L268.415 569.101L289.567 561.205C292.874 559.97 296.537 560.099 299.749 561.565C302.961 563.031 305.459 565.712 306.694 569.02Z" fill="#8BE2E2" stroke="black" stroke-width="0.5"/>
<path d="M190.791 523.294L185.344 567.455L174.236 567.456L174.235 523.295L190.791 523.294Z" fill="white" stroke="black" stroke-width="0.5"/>
<path d="M207.646 577.958L207.646 578.206L171.756 578.208L171.756 564.648L194.334 564.647C197.864 564.647 201.25 566.049 203.747 568.545C206.243 571.042 207.646 574.428 207.646 577.958Z" fill="#8BE2E2" stroke="black" stroke-width="0.5"/>
<path d="M203.246 358.547C203.246 358.547 231.58 353.824 241.024 365.158L281.163 550.74L258.496 553.573C258.496 553.573 250.941 457.24 213.163 431.741C213.163 431.741 185.774 516.74 190.497 555.462L170.663 553.573C170.663 553.573 164.525 390.657 203.246 358.547Z" fill="black"/>
<path d="M262.071 425.181L261.736 424.926L261.538 424.774L261.386 424.973L260.167 426.573L260.016 426.772L260.214 426.923L260.549 427.178L257.601 431.045L257.267 430.791L257.068 430.639L256.917 430.838L248.225 442.244L248.225 442.244C248.22 442.25 248.216 442.255 248.212 442.26C247.217 443.557 245.75 444.408 244.13 444.626C242.503 444.846 240.856 444.41 239.55 443.415L239.399 443.614L239.55 443.415L231.671 437.411L231.666 437.408L231.666 437.407C231.02 436.915 230.477 436.3 230.068 435.597C229.659 434.895 229.393 434.118 229.284 433.313C229.175 432.507 229.226 431.688 229.434 430.903C229.642 430.117 230.002 429.38 230.495 428.733L249.098 404.321L249.098 404.321C249.1 404.319 249.101 404.317 249.103 404.315M262.071 425.181L249.107 404.308L249.107 404.309L249.103 404.315M262.071 425.181L265.018 421.313M262.071 425.181L265.018 421.313M249.103 404.315C249.595 403.671 250.208 403.13 250.909 402.723C251.611 402.314 252.387 402.048 253.193 401.939C253.998 401.83 254.817 401.881 255.603 402.089C256.389 402.297 257.126 402.657 257.772 403.15L257.909 402.971L257.772 403.15L265.643 409.148L265.643 409.148L265.656 409.158L265.656 409.158C266.303 409.651 266.846 410.266 267.255 410.968C267.663 411.671 267.93 412.447 268.039 413.253C268.147 414.058 268.096 414.877 267.889 415.663C267.681 416.449 267.32 417.186 266.828 417.832L264.636 420.708L264.485 420.907L264.684 421.058L265.018 421.313M249.103 404.315L265.018 421.313" fill="#319595" stroke="black" stroke-width="0.5"/>
<path d="M255.772 417.304C257.623 417.304 259.123 415.803 259.123 413.952C259.123 412.101 257.623 410.601 255.772 410.601C253.921 410.601 252.42 412.101 252.42 413.952C252.42 415.803 253.921 417.304 255.772 417.304Z" fill="white"/>
<path d="M232.23 262.575C232.23 274.794 222.325 284.7 210.105 284.7C197.886 284.7 187.98 274.794 187.98 262.575C187.98 250.355 197.886 240.45 210.105 240.45C222.325 240.45 232.23 250.355 232.23 262.575Z" fill="white" stroke="black" stroke-width="0.5"/>
<path d="M188.41 304.779C188.447 304.736 188.497 304.679 188.56 304.609C188.714 304.436 188.944 304.184 189.243 303.87C189.841 303.241 190.714 302.364 191.815 301.373C194.019 299.389 197.129 296.955 200.761 295.139C204.395 293.322 208.536 292.131 212.811 292.611C217.079 293.09 221.509 295.238 225.724 300.154C236.621 312.868 242.385 329.19 241.888 345.928L241.255 367.228L202.505 361.159L188.41 304.779Z" fill="#319595" stroke="black" stroke-width="0.5"/>
<path d="M217.833 298.659L217.835 298.659C217.877 298.658 217.919 298.658 217.964 298.658L217.966 298.658C217.966 298.658 217.966 298.658 217.966 298.658C220.38 298.657 222.711 299.537 224.522 301.134C226.333 302.73 227.499 304.932 227.802 307.327L227.802 307.327L243.047 427.472L243.06 427.568L243.134 427.631L243.274 427.749L243.274 427.749C245.026 429.223 246.181 431.284 246.524 433.546C246.868 435.809 246.376 438.12 245.14 440.047C243.896 441.958 242.012 443.365 239.826 444.015C237.64 444.665 235.293 444.517 233.206 443.597C231.924 443.014 230.787 442.154 229.88 441.077C228.972 440 228.316 438.734 227.959 437.371C227.603 436.008 227.555 434.583 227.819 433.199C228.083 431.815 228.652 430.508 229.485 429.372L229.486 429.371L229.605 429.208L229.668 429.122L229.649 429.016L208.205 310.339L208.205 310.339C207.949 308.921 208.005 307.465 208.368 306.071C208.732 304.677 209.395 303.379 210.312 302.267C211.228 301.155 212.376 300.257 213.675 299.634C214.974 299.01 216.393 298.678 217.833 298.659Z" fill="white" stroke="black" stroke-width="0.5"/>
<path d="M213.732 266.446L223.345 255.12C225.823 252.202 228.414 249.023 228.764 245.211C229.149 241.032 226.607 236.97 223.132 234.617C219.657 232.264 215.39 231.379 211.206 231.054C203.446 230.451 195.28 231.734 188.901 236.193C182.521 240.653 178.348 248.703 179.903 256.33C181.128 262.335 185.641 268.087 183.887 273.959C181.968 280.385 174.097 282.356 167.671 284.272C156.884 287.488 146.584 293.819 140.931 303.553C135.278 313.286 135.303 326.707 142.839 335.068C147.718 340.483 155.077 343.22 162.354 343.632C169.631 344.044 176.874 342.331 183.775 339.986C190.13 337.828 196.418 335.051 201.421 330.577C206.425 326.102 210.03 319.7 209.873 312.989C209.725 306.594 206.299 300.769 204.892 294.529C203.782 289.303 204.073 283.878 205.736 278.801C207.399 273.725 210.375 269.178 214.362 265.623" fill="black"/>
<path d="M198.457 229.465L204.512 228.277C205.013 228.179 205.528 228.18 206.028 228.281C206.528 228.382 207.003 228.58 207.426 228.864C207.85 229.149 208.213 229.514 208.495 229.939C208.777 230.363 208.973 230.84 209.071 231.34L217.445 259.438L203.767 262.122L195.393 234.024C195.195 233.013 195.406 231.965 195.981 231.11C196.555 230.255 197.446 229.663 198.457 229.465Z" fill="#319595"/>
<path d="M211.781 275.382C217.864 275.382 222.795 270.451 222.795 264.368C222.795 258.285 217.864 253.354 211.781 253.354C205.698 253.354 200.767 258.285 200.767 264.368C200.767 270.451 205.698 275.382 211.781 275.382Z" fill="white" stroke="black" stroke-width="0.5"/>
<path d="M211.781 270.487C215.16 270.487 217.9 267.747 217.9 264.368C217.9 260.988 215.16 258.249 211.781 258.249C208.402 258.249 205.662 260.988 205.662 264.368C205.662 267.747 208.402 270.487 211.781 270.487Z" fill="#319595"/>
</g>
<defs>
<clipPath id="clip0">
<rect width="900" height="588.956" fill="white"/>
</clipPath>
</defs>
</svg>
